M48
; DRILL file {KiCad (6.0.5)} date Tue Aug 30 11:56:51 2022
; FORMAT={-:-/ absolute / inch / decimal}
; #@! TF.CreationDate,2022-08-30T11:56:51+01:00
; #@! TF.GenerationSoftware,Kicad,Pcbnew,(6.0.5)
; #@! TF.FileFunction,Plated,1,4,PTH
FMAT,2
INCH
; #@! TA.AperFunction,Plated,PTH,ViaDrill
T1C0.0118
; #@! TA.AperFunction,Plated,PTH,ViaDrill
T2C0.0157
; #@! TA.AperFunction,Plated,PTH,ComponentDrill
T3C0.0236
; #@! TA.AperFunction,Plated,PTH,ComponentDrill
T4C0.0315
; #@! TA.AperFunction,Plated,PTH,ComponentDrill
T5C0.0394
; #@! TA.AperFunction,Plated,PTH,ComponentDrill
T6C0.1181
; #@! TA.AperFunction,Plated,PTH,ComponentDrill
T7C0.1260
%
G90
G05
T1
X1.9055Y-2.197
X1.9055Y-4.397
X1.9055Y-4.797
X1.9055Y-5.047
X1.9805Y-1.597
X1.9805Y-1.847
X1.9805Y-2.297
X1.9805Y-4.447
X1.9805Y-4.897
X2.0305Y-4.922
X2.0805Y-2.197
X2.1305Y-1.997
X2.1305Y-2.297
X2.1305Y-3.297
X2.1805Y-2.047
X2.1805Y-3.347
X2.1805Y-4.222
X2.1805Y-4.872
X2.2305Y-1.597
X2.2305Y-1.847
X2.2305Y-2.097
X2.2305Y-3.397
X2.2305Y-3.997
X2.2305Y-4.822
X2.2805Y-2.147
X2.2805Y-3.447
X2.2805Y-3.947
X2.2805Y-4.772
X2.3305Y-2.197
X2.3305Y-3.497
X2.3305Y-3.897
X2.3305Y-4.722
X2.3805Y-2.247
X2.3805Y-3.547
X2.3805Y-3.847
X2.3805Y-4.672
X2.425Y-4.097
X2.4305Y-2.297
X2.4305Y-3.597
X2.4305Y-4.622
X2.4805Y-1.597
X2.4805Y-1.847
X2.4805Y-2.397
X2.4805Y-3.097
X2.4805Y-3.172
X2.4805Y-3.847
X2.4805Y-4.097
X2.4805Y-4.347
X2.55Y-4.297
X2.5805Y-3.322
X2.6305Y-3.322
X2.6805Y-3.997
X2.6805Y-4.347
X2.7055Y-3.422
X2.7305Y-1.597
X2.7305Y-1.847
X2.7305Y-2.597
X2.7305Y-3.322
X2.7555Y-3.472
X2.7805Y-3.297
X2.7805Y-4.447
X2.8305Y-3.272
X2.8305Y-3.522
X2.8805Y-3.247
X2.9055Y-3.597
X2.9055Y-4.022
X2.9055Y-4.197
X2.9055Y-4.397
X2.9305Y-3.222
X2.9555Y-4.322
X2.9555Y-4.522
X2.9805Y-1.597
X2.9805Y-1.847
X2.9805Y-2.597
X2.9805Y-2.847
X2.9805Y-3.197
X2.9805Y-3.597
X3.0055Y-5.147
X3.0305Y-2.397
X3.0305Y-2.697
X3.0305Y-3.122
X3.0555Y-5.197
X3.1055Y-2.347
X3.1055Y-3.172
X3.1305Y-2.822
X3.1331Y-4.872
X3.1555Y-3.947
X3.1805Y-2.297
X3.1805Y-2.347
X3.1805Y-2.797
X3.1805Y-3.047
X3.1805Y-3.097
X3.1805Y-3.147
X3.1805Y-3.597
X3.1805Y-3.847
X3.2055Y-2.447
X3.2055Y-5.297
X3.2305Y-1.847
X3.2305Y-1.997
X3.2305Y-2.047
X3.2305Y-2.772
X3.2305Y-3.647
X3.2305Y-3.847
X3.2305Y-4.097
X3.2305Y-4.347
X3.2555Y-1.647
X3.2555Y-2.247
X3.2805Y-2.347
X3.2805Y-2.747
X3.2805Y-3.147
X3.2805Y-3.547
X3.3055Y-3.472
X3.3055Y-5.047
X3.325Y-3.622
X3.3305Y-1.697
X3.3305Y-2.197
X3.3305Y-2.722
X3.3555Y-4.022
X3.3555Y-4.322
X3.3598Y-3.9427
X3.3805Y-1.722
X3.3805Y-1.837
X3.3805Y-1.877
X3.3805Y-2.147
X3.3805Y-2.697
X3.4055Y-5.172
X3.4084Y-3.8249
X3.4305Y-1.947
X3.4305Y-2.097
X3.4305Y-2.672
X3.4555Y-3.497
X3.4555Y-5.022
X3.4555Y-5.222
X3.4805Y-2.647
X3.4805Y-3.347
X3.4805Y-4.347
X3.4898Y-3.4882
X3.5055Y-2.497
X3.5055Y-2.547
X3.5145Y-3.4628
X3.5173Y-3.6778
X3.5173Y-3.7528
X3.5305Y-2.197
X3.5305Y-2.347
X3.5305Y-2.597
X3.5305Y-4.297
X3.5541Y-3.4958
X3.5805Y-1.722
X3.5805Y-1.947
X3.581Y-3.5188
X3.6055Y-4.197
X3.6055Y-5.122
X3.6205Y-1.837
X3.6205Y-1.877
X3.6305Y-1.697
X3.6305Y-2.197
X3.6305Y-2.347
X3.6305Y-2.597
X3.6305Y-2.747
X3.652Y-3.4615
X3.6555Y-2.497
X3.6555Y-2.547
X3.6805Y-3.022
X3.6805Y-4.097
X3.7055Y-1.647
X3.7305Y-2.097
X3.7305Y-2.347
X3.7305Y-2.597
X3.7305Y-4.347
X3.7555Y-3.722
X3.7555Y-3.997
X3.7805Y-3.522
X3.7805Y-3.847
X3.8305Y-3.097
X3.8305Y-3.147
X3.8305Y-3.522
X3.8305Y-3.672
X3.8305Y-5.072
X3.8555Y-3.822
X3.8805Y-3.197
X3.8805Y-3.622
X3.8805Y-3.947
X3.9055Y-1.997
X3.9305Y-2.497
X3.9305Y-5.072
X3.9555Y-1.747
X3.9555Y-1.797
X3.9555Y-3.872
X3.9805Y-1.597
X3.9805Y-2.097
X3.9805Y-2.347
X3.9805Y-2.597
X3.9805Y-2.847
X3.9805Y-3.097
X3.9805Y-3.597
X3.9805Y-4.347
X4.0305Y-2.522
X4.0305Y-3.222
X4.0555Y-3.922
X4.0805Y-1.622
X4.0805Y-1.697
X4.0805Y-3.247
X4.1055Y-3.497
X4.1055Y-4.347
X4.1305Y-2.047
X4.1305Y-2.922
X4.1555Y-4.047
X4.1555Y-4.522
X4.1555Y-4.972
X4.1555Y-5.047
X4.1805Y-3.197
X4.2305Y-1.622
X4.2305Y-1.697
X4.2305Y-2.097
X4.2305Y-2.347
X4.2305Y-2.597
X4.2305Y-2.847
X4.2305Y-3.647
X4.2305Y-3.747
X4.2305Y-4.047
X4.2305Y-4.247
X4.2305Y-4.347
X4.2305Y-5.097
X4.2805Y-3.472
X4.2805Y-4.447
X4.2805Y-4.622
X4.2805Y-5.2995
X4.3055Y-5.122
X4.3055Y-5.197
X4.3305Y-3.447
X4.3305Y-4.672
X4.3805Y-3.422
X4.3805Y-4.722
X4.4305Y-3.397
X4.4305Y-4.772
X4.4805Y-1.597
X4.4805Y-2.097
X4.4805Y-2.347
X4.4805Y-2.597
X4.4805Y-2.847
X4.4805Y-3.097
X4.4805Y-3.372
X4.4805Y-4.822
X4.5305Y-1.597
X4.5305Y-3.347
X4.5305Y-5.072
X4.5805Y-3.322
X4.5805Y-5.172
X4.6305Y-3.747
X4.6305Y-3.847
X4.6305Y-4.147
X4.6305Y-4.597
X4.6305Y-5.072
X4.6555Y-5.272
X4.6805Y-2.747
X4.7305Y-1.597
X4.7305Y-1.847
X4.7305Y-2.097
X4.7305Y-2.347
X4.7305Y-2.597
X4.7805Y-3.247
X4.7805Y-3.447
X4.7805Y-3.647
X4.7805Y-3.847
X4.7805Y-4.147
X4.7805Y-4.347
X4.7805Y-4.547
X4.7805Y-4.747
X4.9805Y-1.597
X4.9805Y-1.847
X4.9805Y-2.097
X4.9805Y-2.347
X4.9805Y-2.597
X4.9805Y-2.847
X4.9805Y-3.097
X4.9805Y-3.347
X4.9805Y-4.597
X4.9805Y-4.847
X4.9805Y-5.097
X5.2305Y-2.847
T2
X2.014Y-3.197
X2.0305Y-4.197
X2.0805Y-3.147
X2.0805Y-4.147
X2.0805Y-5.297
X2.1305Y-4.097
X2.1805Y-4.047
X2.5305Y-2.847
X2.5305Y-3.272
X2.5805Y-2.597
X2.5805Y-3.522
X2.6055Y-4.147
X2.6805Y-2.647
X2.6805Y-2.947
X2.7805Y-2.747
X2.8305Y-2.847
X2.8555Y-4.147
X2.8555Y-4.197
X2.8555Y-4.247
X2.8805Y-2.997
X2.9055Y-4.147
X2.9305Y-2.897
X2.9305Y-3.0925
X3.2055Y-4.922
X3.213Y-5.2295
X4.6305Y-2.797
X4.6805Y-4.922
T4
X5.2805Y-1.747
X5.3805Y-1.747
T5
X1.7305Y-1.797
X1.7305Y-1.897
X1.7305Y-1.997
X1.7305Y-2.097
X1.7305Y-2.197
X1.7305Y-2.297
X1.7305Y-2.397
X1.7305Y-2.497
X1.7305Y-2.597
X1.7305Y-2.697
X1.7305Y-2.797
X1.7305Y-2.897
X1.7305Y-2.997
X1.7305Y-3.097
X1.7305Y-3.197
X1.7305Y-3.297
X1.7305Y-3.397
X1.7305Y-3.497
X1.7305Y-3.597
X1.7305Y-3.697
X1.7305Y-3.797
X1.7305Y-3.897
X1.7305Y-3.997
X1.7305Y-4.097
X1.7305Y-4.197
X1.7305Y-4.297
X1.7305Y-4.397
X1.7305Y-4.497
X1.7305Y-4.597
X1.7305Y-4.697
X1.7305Y-4.797
X1.7305Y-4.897
X1.8305Y-1.797
X1.8305Y-1.897
X1.8305Y-1.997
X1.8305Y-2.097
X1.8305Y-2.197
X1.8305Y-2.297
X1.8305Y-2.397
X1.8305Y-2.497
X1.8305Y-2.597
X1.8305Y-2.697
X1.8305Y-2.797
X1.8305Y-2.897
X1.8305Y-2.997
X1.8305Y-3.097
X1.8305Y-3.197
X1.8305Y-3.297
X1.8305Y-3.397
X1.8305Y-3.497
X1.8305Y-3.597
X1.8305Y-3.697
X1.8305Y-3.797
X1.8305Y-3.897
X1.8305Y-3.997
X1.8305Y-4.097
X1.8305Y-4.197
X1.8305Y-4.297
X1.8305Y-4.397
X1.8305Y-4.497
X1.8305Y-4.597
X1.8305Y-4.697
X1.8305Y-4.797
X1.8305Y-4.897
X2.4803Y-5.0968
X2.4803Y-5.1968
X2.5803Y-5.0968
X2.5803Y-5.1968
X2.6803Y-5.0968
X2.6803Y-5.1968
X2.7803Y-5.0968
X2.7803Y-5.1968
X2.8803Y-5.0968
X2.8803Y-5.1968
X3.2555Y-4.422
X3.2555Y-4.522
X5.1305Y-2.997
X5.1305Y-3.097
X5.1305Y-3.197
X5.1305Y-3.297
X5.1305Y-3.397
X5.1305Y-3.497
X5.1305Y-3.597
X5.1305Y-3.697
X5.1305Y-3.797
X5.1305Y-3.897
X5.1305Y-3.997
X5.1305Y-4.097
X5.1305Y-4.197
X5.1305Y-4.297
X5.1305Y-4.397
X5.1305Y-4.497
X5.1305Y-4.597
X5.1305Y-4.697
X5.1305Y-4.797
X5.1305Y-4.897
X5.2305Y-2.997
X5.2305Y-3.097
X5.2305Y-3.197
X5.2305Y-3.297
X5.2305Y-3.397
X5.2305Y-3.497
X5.2305Y-3.597
X5.2305Y-3.697
X5.2305Y-3.797
X5.2305Y-3.897
X5.2305Y-3.997
X5.2305Y-4.097
X5.2305Y-4.197
X5.2305Y-4.297
X5.2305Y-4.397
X5.2305Y-4.497
X5.2305Y-4.597
X5.2305Y-4.697
X5.2305Y-4.797
X5.2305Y-4.897
T7
X1.6805Y-1.547
X1.6805Y-5.147
X5.2805Y-1.547
X5.2805Y-5.147
T3
G00X3.3104Y-1.4675
M15
G01X3.3104Y-1.4439
M16
G05
G00X3.3104Y-1.6419
M15
G01X3.3104Y-1.5986
M16
G05
G00X3.6506Y-1.4675
M15
G01X3.6506Y-1.4439
M16
G05
G00X3.6506Y-1.6419
M15
G01X3.6506Y-1.5986
M16
G05
T6
G00X5.3305Y-2.0561
M15
G01X5.3305Y-1.938
M16
G05
T0
M30
