%TF.GenerationSoftware,KiCad,Pcbnew,(6.0.5)*%
%TF.CreationDate,2022-08-30T11:56:48+01:00*%
%TF.ProjectId,STM32F405RGT6,53544d33-3246-4343-9035-524754362e6b,V22.08.0.1*%
%TF.SameCoordinates,Original*%
%TF.FileFunction,Paste,Top*%
%TF.FilePolarity,Positive*%
%FSLAX46Y46*%
G04 Gerber Fmt 4.6, Leading zero omitted, Abs format (unit mm)*
G04 Created by KiCad (PCBNEW (6.0.5)) date 2022-08-30 11:56:48*
%MOMM*%
%LPD*%
G01*
G04 APERTURE LIST*
G04 Aperture macros list*
%AMRoundRect*
0 Rectangle with rounded corners*
0 $1 Rounding radius*
0 $2 $3 $4 $5 $6 $7 $8 $9 X,Y pos of 4 corners*
0 Add a 4 corners polygon primitive as box body*
4,1,4,$2,$3,$4,$5,$6,$7,$8,$9,$2,$3,0*
0 Add four circle primitives for the rounded corners*
1,1,$1+$1,$2,$3*
1,1,$1+$1,$4,$5*
1,1,$1+$1,$6,$7*
1,1,$1+$1,$8,$9*
0 Add four rect primitives between the rounded corners*
20,1,$1+$1,$2,$3,$4,$5,0*
20,1,$1+$1,$4,$5,$6,$7,0*
20,1,$1+$1,$6,$7,$8,$9,0*
20,1,$1+$1,$8,$9,$2,$3,0*%
G04 Aperture macros list end*
%ADD10C,1.600500*%
%ADD11RoundRect,0.225000X0.225000X0.250000X-0.225000X0.250000X-0.225000X-0.250000X0.225000X-0.250000X0*%
%ADD12R,0.600000X1.000000*%
%ADD13RoundRect,0.218750X0.256250X-0.218750X0.256250X0.218750X-0.256250X0.218750X-0.256250X-0.218750X0*%
%ADD14RoundRect,0.225000X-0.225000X-0.250000X0.225000X-0.250000X0.225000X0.250000X-0.225000X0.250000X0*%
%ADD15RoundRect,0.250000X0.625000X-0.375000X0.625000X0.375000X-0.625000X0.375000X-0.625000X-0.375000X0*%
%ADD16R,1.800000X1.100000*%
%ADD17R,0.450000X0.600000*%
%ADD18RoundRect,0.225000X0.250000X-0.225000X0.250000X0.225000X-0.250000X0.225000X-0.250000X-0.225000X0*%
%ADD19RoundRect,0.150000X-0.825000X-0.150000X0.825000X-0.150000X0.825000X0.150000X-0.825000X0.150000X0*%
%ADD20RoundRect,0.200000X-0.275000X0.200000X-0.275000X-0.200000X0.275000X-0.200000X0.275000X0.200000X0*%
%ADD21R,0.600000X0.450000*%
%ADD22RoundRect,0.200000X0.275000X-0.200000X0.275000X0.200000X-0.275000X0.200000X-0.275000X-0.200000X0*%
%ADD23RoundRect,0.218750X-0.256250X0.218750X-0.256250X-0.218750X0.256250X-0.218750X0.256250X0.218750X0*%
%ADD24R,1.100000X1.100000*%
%ADD25RoundRect,0.218750X0.218750X0.256250X-0.218750X0.256250X-0.218750X-0.256250X0.218750X-0.256250X0*%
%ADD26RoundRect,0.150000X-0.150000X0.587500X-0.150000X-0.587500X0.150000X-0.587500X0.150000X0.587500X0*%
%ADD27R,1.400000X1.200000*%
%ADD28R,0.600000X1.450000*%
%ADD29R,0.300000X1.450000*%
%ADD30R,2.000000X1.500000*%
%ADD31R,2.000000X3.800000*%
%ADD32RoundRect,0.225000X-0.250000X0.225000X-0.250000X-0.225000X0.250000X-0.225000X0.250000X0.225000X0*%
%ADD33RoundRect,0.075000X0.075000X-0.700000X0.075000X0.700000X-0.075000X0.700000X-0.075000X-0.700000X0*%
%ADD34RoundRect,0.075000X0.700000X-0.075000X0.700000X0.075000X-0.700000X0.075000X-0.700000X-0.075000X0*%
G04 APERTURE END LIST*
D10*
X43485250Y-130480000D02*
G75*
G03*
X43485250Y-130480000I-800250J0D01*
G01*
X134925250Y-39040000D02*
G75*
G03*
X134925250Y-39040000I-800250J0D01*
G01*
X134925250Y-130480000D02*
G75*
G03*
X134925250Y-130480000I-800250J0D01*
G01*
X43485250Y-39040000D02*
G75*
G03*
X43485250Y-39040000I-800250J0D01*
G01*
D11*
%TO.C,C1*%
X76340000Y-102159000D03*
X74790000Y-102159000D03*
%TD*%
D12*
%TO.C,D2*%
X62230000Y-105239000D03*
X60930000Y-105239000D03*
X60930000Y-107239000D03*
X62230000Y-107239000D03*
%TD*%
D13*
%TO.C,D4*%
X82690000Y-128981500D03*
X82690000Y-127406500D03*
%TD*%
D14*
%TO.C,C6*%
X96025000Y-88189000D03*
X97575000Y-88189000D03*
%TD*%
D15*
%TO.C,F1*%
X99200000Y-49584000D03*
X99200000Y-46784000D03*
%TD*%
D16*
%TO.C,SW1*%
X101665000Y-128884000D03*
X95465000Y-128884000D03*
X95465000Y-132584000D03*
X101665000Y-132584000D03*
%TD*%
D17*
%TO.C,D7*%
X59830000Y-129684000D03*
X59830000Y-131784000D03*
%TD*%
D18*
%TO.C,C3*%
X110630000Y-131509000D03*
X110630000Y-129959000D03*
%TD*%
D11*
%TO.C,C13*%
X83325000Y-77394000D03*
X81775000Y-77394000D03*
%TD*%
D14*
%TO.C,C5*%
X80335000Y-98984000D03*
X81885000Y-98984000D03*
%TD*%
D13*
%TO.C,D5*%
X85230000Y-128981500D03*
X85230000Y-127406500D03*
%TD*%
D19*
%TO.C,U1*%
X70755000Y-104064000D03*
X70755000Y-105334000D03*
X70755000Y-106604000D03*
X70755000Y-107874000D03*
X75705000Y-107874000D03*
X75705000Y-106604000D03*
X75705000Y-105334000D03*
X75705000Y-104064000D03*
%TD*%
D20*
%TO.C,R6*%
X82690000Y-131179000D03*
X82690000Y-132829000D03*
%TD*%
D21*
%TO.C,D3*%
X105550000Y-49454000D03*
X107650000Y-49454000D03*
%TD*%
D22*
%TO.C,R4*%
X69990000Y-111429000D03*
X69990000Y-109779000D03*
%TD*%
%TO.C,R8*%
X115075000Y-43294000D03*
X115075000Y-41644000D03*
%TD*%
D11*
%TO.C,C18*%
X90310000Y-94539000D03*
X88760000Y-94539000D03*
%TD*%
D23*
%TO.C,FB2*%
X90310000Y-96291500D03*
X90310000Y-97866500D03*
%TD*%
%TO.C,FB1*%
X94755000Y-75184000D03*
X94755000Y-76759000D03*
%TD*%
D22*
%TO.C,R5*%
X72530000Y-111429000D03*
X72530000Y-109779000D03*
%TD*%
D23*
%TO.C,D6*%
X115075000Y-45491500D03*
X115075000Y-47066500D03*
%TD*%
D24*
%TO.C,D1*%
X59830000Y-109144000D03*
X59830000Y-111944000D03*
%TD*%
D11*
%TO.C,C16*%
X103010000Y-44374000D03*
X101460000Y-44374000D03*
%TD*%
D22*
%TO.C,R11*%
X82055000Y-40944000D03*
X82055000Y-39294000D03*
%TD*%
D25*
%TO.C,FB3*%
X96812500Y-42704000D03*
X95237500Y-42704000D03*
%TD*%
D11*
%TO.C,C9*%
X82055000Y-90094000D03*
X80505000Y-90094000D03*
%TD*%
D14*
%TO.C,C10*%
X96025000Y-81204000D03*
X97575000Y-81204000D03*
%TD*%
D26*
%TO.C,D9*%
X87831000Y-45293000D03*
X85931000Y-45293000D03*
X86881000Y-47168000D03*
%TD*%
D20*
%TO.C,R7*%
X85230000Y-131179000D03*
X85230000Y-132829000D03*
%TD*%
D16*
%TO.C,SW2*%
X113245000Y-128884000D03*
X119445000Y-128884000D03*
X113245000Y-132584000D03*
X119445000Y-132584000D03*
%TD*%
D14*
%TO.C,C4*%
X94755000Y-78664000D03*
X96305000Y-78664000D03*
%TD*%
%TO.C,C14*%
X94755000Y-79934000D03*
X96305000Y-79934000D03*
%TD*%
%TO.C,C7*%
X83790000Y-98984000D03*
X85340000Y-98984000D03*
%TD*%
D20*
%TO.C,R3*%
X122060000Y-129909000D03*
X122060000Y-131559000D03*
%TD*%
D11*
%TO.C,C17*%
X90310000Y-92634000D03*
X88760000Y-92634000D03*
%TD*%
D14*
%TO.C,C8*%
X62230000Y-109144000D03*
X63780000Y-109144000D03*
%TD*%
D27*
%TO.C,Y1*%
X81420000Y-102374000D03*
X83620000Y-102374000D03*
X83620000Y-100674000D03*
X81420000Y-100674000D03*
%TD*%
D20*
%TO.C,R2*%
X104280000Y-129909000D03*
X104280000Y-131559000D03*
%TD*%
D28*
%TO.C,J2*%
X91655000Y-42069000D03*
X90855000Y-42069000D03*
D29*
X89655000Y-42069000D03*
X88655000Y-42069000D03*
X88155000Y-42069000D03*
X87155000Y-42069000D03*
D28*
X85955000Y-42069000D03*
X85155000Y-42069000D03*
X85155000Y-42069000D03*
X85955000Y-42069000D03*
D29*
X86655000Y-42069000D03*
X87655000Y-42069000D03*
X89155000Y-42069000D03*
X90155000Y-42069000D03*
D28*
X90855000Y-42069000D03*
X91655000Y-42069000D03*
%TD*%
D30*
%TO.C,U2*%
X105575000Y-42074000D03*
X105575000Y-44374000D03*
D31*
X111875000Y-44374000D03*
D30*
X105575000Y-46674000D03*
%TD*%
D32*
%TO.C,C15*%
X83325000Y-91364000D03*
X83325000Y-92914000D03*
%TD*%
D22*
%TO.C,R10*%
X94565000Y-40944000D03*
X94565000Y-39294000D03*
%TD*%
D18*
%TO.C,C2*%
X92850000Y-131649000D03*
X92850000Y-130099000D03*
%TD*%
D11*
%TO.C,C12*%
X103010000Y-46514000D03*
X101460000Y-46514000D03*
%TD*%
D33*
%TO.C,U3*%
X84655000Y-90689000D03*
X85155000Y-90689000D03*
X85655000Y-90689000D03*
X86155000Y-90689000D03*
X86655000Y-90689000D03*
X87155000Y-90689000D03*
X87655000Y-90689000D03*
X88155000Y-90689000D03*
X88655000Y-90689000D03*
X89155000Y-90689000D03*
X89655000Y-90689000D03*
X90155000Y-90689000D03*
X90655000Y-90689000D03*
X91155000Y-90689000D03*
X91655000Y-90689000D03*
X92155000Y-90689000D03*
D34*
X94080000Y-88764000D03*
X94080000Y-88264000D03*
X94080000Y-87764000D03*
X94080000Y-87264000D03*
X94080000Y-86764000D03*
X94080000Y-86264000D03*
X94080000Y-85764000D03*
X94080000Y-85264000D03*
X94080000Y-84764000D03*
X94080000Y-84264000D03*
X94080000Y-83764000D03*
X94080000Y-83264000D03*
X94080000Y-82764000D03*
X94080000Y-82264000D03*
X94080000Y-81764000D03*
X94080000Y-81264000D03*
D33*
X92155000Y-79339000D03*
X91655000Y-79339000D03*
X91155000Y-79339000D03*
X90655000Y-79339000D03*
X90155000Y-79339000D03*
X89655000Y-79339000D03*
X89155000Y-79339000D03*
X88655000Y-79339000D03*
X88155000Y-79339000D03*
X87655000Y-79339000D03*
X87155000Y-79339000D03*
X86655000Y-79339000D03*
X86155000Y-79339000D03*
X85655000Y-79339000D03*
X85155000Y-79339000D03*
X84655000Y-79339000D03*
D34*
X82730000Y-81264000D03*
X82730000Y-81764000D03*
X82730000Y-82264000D03*
X82730000Y-82764000D03*
X82730000Y-83264000D03*
X82730000Y-83764000D03*
X82730000Y-84264000D03*
X82730000Y-84764000D03*
X82730000Y-85264000D03*
X82730000Y-85764000D03*
X82730000Y-86264000D03*
X82730000Y-86764000D03*
X82730000Y-87264000D03*
X82730000Y-87764000D03*
X82730000Y-88264000D03*
X82730000Y-88764000D03*
%TD*%
D26*
%TO.C,D10*%
X91895000Y-45293000D03*
X89995000Y-45293000D03*
X90945000Y-47168000D03*
%TD*%
D22*
%TO.C,R9*%
X104915000Y-82474000D03*
X104915000Y-80824000D03*
%TD*%
D11*
%TO.C,C11*%
X83325000Y-78664000D03*
X81775000Y-78664000D03*
%TD*%
D17*
%TO.C,D8*%
X99200000Y-44804000D03*
X99200000Y-42704000D03*
%TD*%
D22*
%TO.C,R1*%
X85230000Y-112509000D03*
X85230000Y-110859000D03*
%TD*%
M02*
