%TF.GenerationSoftware,KiCad,Pcbnew,(6.0.5)*%
%TF.CreationDate,2022-08-30T11:56:48+01:00*%
%TF.ProjectId,STM32F405RGT6,53544d33-3246-4343-9035-524754362e6b,V22.08.0.1*%
%TF.SameCoordinates,Original*%
%TF.FileFunction,Soldermask,Bot*%
%TF.FilePolarity,Negative*%
%FSLAX46Y46*%
G04 Gerber Fmt 4.6, Leading zero omitted, Abs format (unit mm)*
G04 Created by KiCad (PCBNEW (6.0.5)) date 2022-08-30 11:56:48*
%MOMM*%
%LPD*%
G01*
G04 APERTURE LIST*
%ADD10C,0.150000*%
%ADD11C,0.635500*%
%ADD12C,0.001000*%
%ADD13O,5.000000X8.000000*%
%ADD14C,6.400000*%
%ADD15C,1.400000*%
%ADD16R,1.700000X1.700000*%
%ADD17O,1.700000X1.700000*%
%ADD18C,0.650000*%
%ADD19O,1.000000X1.600000*%
%ADD20O,1.000000X2.100000*%
G04 APERTURE END LIST*
D10*
%TO.C,REF\u002A\u002A*%
X132987726Y-66926380D02*
X133321059Y-66450190D01*
X133559154Y-66926380D02*
X133559154Y-65926380D01*
X133178202Y-65926380D01*
X133082964Y-65974000D01*
X133035345Y-66021619D01*
X132987726Y-66116857D01*
X132987726Y-66259714D01*
X133035345Y-66354952D01*
X133082964Y-66402571D01*
X133178202Y-66450190D01*
X133559154Y-66450190D01*
X132559154Y-66926380D02*
X132559154Y-65926380D01*
X132082964Y-66402571D02*
X131749630Y-66402571D01*
X131606773Y-66926380D02*
X132082964Y-66926380D01*
X132082964Y-65926380D01*
X131606773Y-65926380D01*
X131178202Y-66926380D02*
X131178202Y-65926380D01*
X130940107Y-65926380D01*
X130797250Y-65974000D01*
X130702011Y-66069238D01*
X130654392Y-66164476D01*
X130606773Y-66354952D01*
X130606773Y-66497809D01*
X130654392Y-66688285D01*
X130702011Y-66783523D01*
X130797250Y-66878761D01*
X130940107Y-66926380D01*
X131178202Y-66926380D01*
D11*
X134847500Y-66474000D02*
G75*
G03*
X134847500Y-66474000I-317750J0D01*
G01*
X136117500Y-69014000D02*
G75*
G03*
X136117500Y-69014000I-317750J0D01*
G01*
X137387500Y-66474000D02*
G75*
G03*
X137387500Y-66474000I-317750J0D01*
G01*
X137387500Y-71554000D02*
G75*
G03*
X137387500Y-71554000I-317750J0D01*
G01*
G36*
X137704750Y-66474000D02*
G01*
X137704750Y-71554000D01*
X137069750Y-72189000D01*
X136434750Y-72189000D01*
X136434750Y-69649000D01*
X135799750Y-69649000D01*
X135799750Y-68379000D01*
X136434750Y-68379000D01*
X136434750Y-67109000D01*
X134529750Y-67109000D01*
X134529750Y-65839000D01*
X137069750Y-65839000D01*
X137704750Y-66474000D01*
G37*
D12*
X137704750Y-66474000D02*
X137704750Y-71554000D01*
X137069750Y-72189000D01*
X136434750Y-72189000D01*
X136434750Y-69649000D01*
X135799750Y-69649000D01*
X135799750Y-68379000D01*
X136434750Y-68379000D01*
X136434750Y-67109000D01*
X134529750Y-67109000D01*
X134529750Y-65839000D01*
X137069750Y-65839000D01*
X137704750Y-66474000D01*
%TD*%
D13*
%TO.C,GND1*%
X135395000Y-50724000D03*
%TD*%
D14*
%TO.C,H1*%
X42685000Y-39294000D03*
%TD*%
%TO.C,H2*%
X42685000Y-130734000D03*
%TD*%
%TO.C,H3*%
X134125000Y-130734000D03*
%TD*%
%TO.C,H4*%
X134125000Y-39294000D03*
%TD*%
D15*
%TO.C,JP5*%
X134125000Y-44374000D03*
X136665000Y-44374000D03*
%TD*%
D16*
%TO.C,J3*%
X46495000Y-45644000D03*
D17*
X43955000Y-45644000D03*
X46495000Y-48184000D03*
X43955000Y-48184000D03*
X46495000Y-50724000D03*
X43955000Y-50724000D03*
X46495000Y-53264000D03*
X43955000Y-53264000D03*
X46495000Y-55804000D03*
X43955000Y-55804000D03*
X46495000Y-58344000D03*
X43955000Y-58344000D03*
X46495000Y-60884000D03*
X43955000Y-60884000D03*
X46495000Y-63424000D03*
X43955000Y-63424000D03*
X46495000Y-65964000D03*
X43955000Y-65964000D03*
X46495000Y-68504000D03*
X43955000Y-68504000D03*
X46495000Y-71044000D03*
X43955000Y-71044000D03*
X46495000Y-73584000D03*
X43955000Y-73584000D03*
X46495000Y-76124000D03*
X43955000Y-76124000D03*
X46495000Y-78664000D03*
X43955000Y-78664000D03*
X46495000Y-81204000D03*
X43955000Y-81204000D03*
X46495000Y-83744000D03*
X43955000Y-83744000D03*
X46495000Y-86284000D03*
X43955000Y-86284000D03*
X46495000Y-88824000D03*
X43955000Y-88824000D03*
X46495000Y-91364000D03*
X43955000Y-91364000D03*
X46495000Y-93904000D03*
X43955000Y-93904000D03*
X46495000Y-96444000D03*
X43955000Y-96444000D03*
X46495000Y-98984000D03*
X43955000Y-98984000D03*
X46495000Y-101524000D03*
X43955000Y-101524000D03*
X46495000Y-104064000D03*
X43955000Y-104064000D03*
X46495000Y-106604000D03*
X43955000Y-106604000D03*
X46495000Y-109144000D03*
X43955000Y-109144000D03*
X46495000Y-111684000D03*
X43955000Y-111684000D03*
X46495000Y-114224000D03*
X43955000Y-114224000D03*
X46495000Y-116764000D03*
X43955000Y-116764000D03*
X46495000Y-119304000D03*
X43955000Y-119304000D03*
X46495000Y-121844000D03*
X43955000Y-121844000D03*
X46495000Y-124384000D03*
X43955000Y-124384000D03*
%TD*%
D16*
%TO.C,J4*%
X132855000Y-76124000D03*
D17*
X130315000Y-76124000D03*
X132855000Y-78664000D03*
X130315000Y-78664000D03*
X132855000Y-81204000D03*
X130315000Y-81204000D03*
X132855000Y-83744000D03*
X130315000Y-83744000D03*
X132855000Y-86284000D03*
X130315000Y-86284000D03*
X132855000Y-88824000D03*
X130315000Y-88824000D03*
X132855000Y-91364000D03*
X130315000Y-91364000D03*
X132855000Y-93904000D03*
X130315000Y-93904000D03*
X132855000Y-96444000D03*
X130315000Y-96444000D03*
X132855000Y-98984000D03*
X130315000Y-98984000D03*
X132855000Y-101524000D03*
X130315000Y-101524000D03*
X132855000Y-104064000D03*
X130315000Y-104064000D03*
X132855000Y-106604000D03*
X130315000Y-106604000D03*
X132855000Y-109144000D03*
X130315000Y-109144000D03*
X132855000Y-111684000D03*
X130315000Y-111684000D03*
X132855000Y-114224000D03*
X130315000Y-114224000D03*
X132855000Y-116764000D03*
X130315000Y-116764000D03*
X132855000Y-119304000D03*
X130315000Y-119304000D03*
X132855000Y-121844000D03*
X130315000Y-121844000D03*
X132855000Y-124384000D03*
X130315000Y-124384000D03*
%TD*%
D16*
%TO.C,J1*%
X73160000Y-129459000D03*
D17*
X73160000Y-131999000D03*
X70620000Y-129459000D03*
X70620000Y-131999000D03*
X68080000Y-129459000D03*
X68080000Y-131999000D03*
X65540000Y-129459000D03*
X65540000Y-131999000D03*
X63000000Y-129459000D03*
X63000000Y-131999000D03*
%TD*%
D18*
%TO.C,J2*%
X85515000Y-40624000D03*
X91295000Y-40624000D03*
D19*
X92725000Y-36974000D03*
D20*
X84085000Y-41154000D03*
X92725000Y-41154000D03*
D19*
X84085000Y-36974000D03*
%TD*%
D16*
%TO.C,JP1*%
X82690000Y-112319000D03*
D17*
X82690000Y-114859000D03*
%TD*%
M02*
