M48
; DRILL file {KiCad (6.0.5)} date Tue Aug 30 13:23:21 2022
; FORMAT={-:-/ absolute / inch / decimal}
; #@! TF.CreationDate,2022-08-30T13:23:21+01:00
; #@! TF.GenerationSoftware,Kicad,Pcbnew,(6.0.5)
; #@! TF.FileFunction,Plated,1,4,PTH
FMAT,2
INCH
; #@! TA.AperFunction,Plated,PTH,ViaDrill
T1C0.0118
; #@! TA.AperFunction,Plated,PTH,ViaDrill
T2C0.0157
; #@! TA.AperFunction,Plated,PTH,ComponentDrill
T3C0.0236
; #@! TA.AperFunction,Plated,PTH,ComponentDrill
T4C0.0315
; #@! TA.AperFunction,Plated,PTH,ComponentDrill
T5C0.0394
; #@! TA.AperFunction,Plated,PTH,ComponentDrill
T6C0.1181
; #@! TA.AperFunction,Plated,PTH,ComponentDrill
T7C0.1260
%
G90
G05
T1
X-1.575Y1.15
X-1.575Y-1.05
X-1.575Y-1.45
X-1.575Y-1.7
X-1.5Y1.75
X-1.5Y1.5
X-1.5Y1.05
X-1.5Y-1.1
X-1.5Y-1.55
X-1.45Y-1.575
X-1.4Y1.15
X-1.35Y1.35
X-1.35Y1.05
X-1.35Y0.05
X-1.3Y1.3
X-1.3Y0.0
X-1.3Y-0.875
X-1.3Y-1.525
X-1.25Y1.75
X-1.25Y1.5
X-1.25Y1.25
X-1.25Y-0.05
X-1.25Y-0.65
X-1.25Y-1.475
X-1.2Y1.2
X-1.2Y-0.1
X-1.2Y-0.6
X-1.2Y-1.425
X-1.15Y1.15
X-1.15Y-0.15
X-1.15Y-0.55
X-1.15Y-1.375
X-1.1Y1.1
X-1.1Y-0.2
X-1.1Y-0.5
X-1.1Y-1.325
X-1.05Y1.05
X-1.05Y-0.25
X-1.05Y-0.8
X-1.05Y-1.275
X-1.0Y1.75
X-1.0Y1.5
X-1.0Y0.95
X-1.0Y0.25
X-1.0Y0.175
X-1.0Y-0.5
X-1.0Y-0.75
X-1.0Y-1.0
X-0.9Y0.025
X-0.85Y0.025
X-0.8Y-0.65
X-0.8Y-1.0
X-0.775Y-0.075
X-0.75Y1.75
X-0.75Y1.5
X-0.75Y0.75
X-0.75Y0.025
X-0.725Y-0.125
X-0.7Y0.05
X-0.7Y-1.1
X-0.65Y0.075
X-0.65Y-0.175
X-0.6Y0.1
X-0.575Y-0.25
X-0.575Y-0.675
X-0.575Y-0.85
X-0.575Y-1.05
X-0.55Y0.125
X-0.525Y-0.975
X-0.525Y-1.175
X-0.5Y1.75
X-0.5Y1.5
X-0.5Y0.75
X-0.5Y0.5
X-0.5Y0.15
X-0.5Y-0.25
X-0.475Y-1.8
X-0.45Y0.95
X-0.45Y0.65
X-0.45Y0.225
X-0.425Y-1.85
X-0.375Y1.0
X-0.375Y0.175
X-0.35Y0.525
X-0.3475Y-1.525
X-0.325Y-0.6
X-0.3Y1.05
X-0.3Y1.0
X-0.3Y0.55
X-0.3Y0.3
X-0.3Y0.25
X-0.3Y0.2
X-0.3Y-0.25
X-0.3Y-0.5
X-0.275Y0.9
X-0.275Y-1.95
X-0.25Y1.5
X-0.25Y1.35
X-0.25Y1.3
X-0.25Y0.575
X-0.25Y-0.3
X-0.25Y-0.5
X-0.25Y-0.75
X-0.25Y-1.0
X-0.225Y1.7
X-0.225Y1.1
X-0.2Y1.0
X-0.2Y0.6
X-0.2Y0.2
X-0.2Y-0.2
X-0.175Y-0.125
X-0.175Y-1.7
X-0.1555Y-0.275
X-0.15Y1.65
X-0.15Y1.15
X-0.15Y0.625
X-0.125Y-0.675
X-0.125Y-0.975
X-0.1207Y-0.5957
X-0.1Y1.625
X-0.1Y1.51
X-0.1Y1.47
X-0.1Y1.2
X-0.1Y0.65
X-0.075Y-1.825
X-0.0721Y-0.4779
X-0.05Y1.4
X-0.05Y1.25
X-0.05Y0.675
X-0.025Y-0.15
X-0.025Y-1.675
X-0.025Y-1.875
X0.0Y0.7
X0.0Y0.0
X0.0Y-1.0
X0.0093Y-0.1412
X0.025Y0.85
X0.025Y0.8
X0.034Y-0.1158
X0.0368Y-0.3308
X0.0368Y-0.4058
X0.05Y1.15
X0.05Y1.0
X0.05Y0.75
X0.05Y-0.95
X0.0736Y-0.1488
X0.1Y1.625
X0.1Y1.4
X0.1005Y-0.1718
X0.125Y-0.85
X0.125Y-1.775
X0.14Y1.51
X0.14Y1.47
X0.15Y1.65
X0.15Y1.15
X0.15Y1.0
X0.15Y0.75
X0.15Y0.6
X0.1715Y-0.1145
X0.175Y0.85
X0.175Y0.8
X0.2Y0.325
X0.2Y-0.75
X0.225Y1.7
X0.25Y1.25
X0.25Y1.0
X0.25Y0.75
X0.25Y-1.0
X0.275Y-0.375
X0.275Y-0.65
X0.3Y-0.175
X0.3Y-0.5
X0.35Y0.25
X0.35Y0.2
X0.35Y-0.175
X0.35Y-0.325
X0.35Y-1.725
X0.375Y-0.475
X0.4Y0.15
X0.4Y-0.275
X0.4Y-0.6
X0.425Y1.35
X0.45Y0.85
X0.45Y-1.725
X0.475Y1.6
X0.475Y1.55
X0.475Y-0.525
X0.5Y1.75
X0.5Y1.25
X0.5Y1.0
X0.5Y0.75
X0.5Y0.5
X0.5Y0.25
X0.5Y-0.25
X0.5Y-1.0
X0.55Y0.825
X0.55Y0.125
X0.575Y-0.575
X0.6Y1.725
X0.6Y1.65
X0.6Y0.1
X0.625Y-0.15
X0.625Y-1.0
X0.65Y1.3
X0.65Y0.425
X0.675Y-0.7
X0.675Y-1.175
X0.675Y-1.625
X0.675Y-1.7
X0.7Y0.15
X0.75Y1.725
X0.75Y1.65
X0.75Y1.25
X0.75Y1.0
X0.75Y0.75
X0.75Y0.5
X0.75Y-0.3
X0.75Y-0.4
X0.75Y-0.7
X0.75Y-0.9
X0.75Y-1.0
X0.75Y-1.75
X0.8Y-0.125
X0.8Y-1.1
X0.8Y-1.275
X0.8Y-1.9525
X0.825Y-1.775
X0.825Y-1.85
X0.85Y-0.1
X0.85Y-1.325
X0.9Y-0.075
X0.9Y-1.375
X0.95Y-0.05
X0.95Y-1.425
X1.0Y1.75
X1.0Y1.25
X1.0Y1.0
X1.0Y0.75
X1.0Y0.5
X1.0Y0.25
X1.0Y-0.025
X1.0Y-1.475
X1.05Y1.75
X1.05Y0.0
X1.05Y-1.725
X1.1Y0.025
X1.1Y-1.825
X1.15Y-0.4
X1.15Y-0.5
X1.15Y-0.8
X1.15Y-1.25
X1.15Y-1.725
X1.175Y-1.925
X1.2Y0.6
X1.25Y1.75
X1.25Y1.5
X1.25Y1.25
X1.25Y1.0
X1.25Y0.75
X1.3Y0.1
X1.3Y-0.1
X1.3Y-0.3
X1.3Y-0.5
X1.3Y-0.8
X1.3Y-1.0
X1.3Y-1.2
X1.3Y-1.4
X1.5Y1.75
X1.5Y1.5
X1.5Y1.25
X1.5Y1.0
X1.5Y0.75
X1.5Y0.5
X1.5Y0.25
X1.5Y0.0
X1.5Y-1.25
X1.5Y-1.5
X1.5Y-1.75
X1.75Y0.5
T2
X-1.4666Y0.15
X-1.45Y-0.85
X-1.4Y0.2
X-1.4Y-0.8
X-1.4Y-1.95
X-1.35Y-0.75
X-1.3Y-0.7
X-0.95Y0.5
X-0.95Y0.075
X-0.9Y0.75
X-0.9Y-0.175
X-0.875Y-0.8
X-0.875Y-0.875
X-0.8Y0.7
X-0.8Y0.4
X-0.7Y0.6
X-0.65Y0.5
X-0.625Y-0.8
X-0.625Y-0.85
X-0.625Y-0.9
X-0.6Y0.35
X-0.575Y-0.8
X-0.55Y0.45
X-0.55Y0.2545
X-0.275Y-1.575
X-0.2675Y-1.8825
X1.15Y0.55
X1.2Y-1.575
T4
X1.8Y1.6
X1.9Y1.6
T5
X-1.75Y1.55
X-1.75Y1.45
X-1.75Y1.35
X-1.75Y1.25
X-1.75Y1.15
X-1.75Y1.05
X-1.75Y0.95
X-1.75Y0.85
X-1.75Y0.75
X-1.75Y0.65
X-1.75Y0.55
X-1.75Y0.45
X-1.75Y0.35
X-1.75Y0.25
X-1.75Y0.15
X-1.75Y0.05
X-1.75Y-0.05
X-1.75Y-0.15
X-1.75Y-0.25
X-1.75Y-0.35
X-1.75Y-0.45
X-1.75Y-0.55
X-1.75Y-0.65
X-1.75Y-0.75
X-1.75Y-0.85
X-1.75Y-0.95
X-1.75Y-1.05
X-1.75Y-1.15
X-1.75Y-1.25
X-1.75Y-1.35
X-1.75Y-1.45
X-1.75Y-1.55
X-1.65Y1.55
X-1.65Y1.45
X-1.65Y1.35
X-1.65Y1.25
X-1.65Y1.15
X-1.65Y1.05
X-1.65Y0.95
X-1.65Y0.85
X-1.65Y0.75
X-1.65Y0.65
X-1.65Y0.55
X-1.65Y0.45
X-1.65Y0.35
X-1.65Y0.25
X-1.65Y0.15
X-1.65Y0.05
X-1.65Y-0.05
X-1.65Y-0.15
X-1.65Y-0.25
X-1.65Y-0.35
X-1.65Y-0.45
X-1.65Y-0.55
X-1.65Y-0.65
X-1.65Y-0.75
X-1.65Y-0.85
X-1.65Y-0.95
X-1.65Y-1.05
X-1.65Y-1.15
X-1.65Y-1.25
X-1.65Y-1.35
X-1.65Y-1.45
X-1.65Y-1.55
X-1.0002Y-1.7498
X-1.0002Y-1.8498
X-0.9002Y-1.7498
X-0.9002Y-1.8498
X-0.8002Y-1.7498
X-0.8002Y-1.8498
X-0.7002Y-1.7498
X-0.7002Y-1.8498
X-0.6002Y-1.7498
X-0.6002Y-1.8498
X-0.225Y-1.075
X-0.225Y-1.175
X1.65Y0.35
X1.65Y0.25
X1.65Y0.15
X1.65Y0.05
X1.65Y-0.05
X1.65Y-0.15
X1.65Y-0.25
X1.65Y-0.35
X1.65Y-0.45
X1.65Y-0.55
X1.65Y-0.65
X1.65Y-0.75
X1.65Y-0.85
X1.65Y-0.95
X1.65Y-1.05
X1.65Y-1.15
X1.65Y-1.25
X1.65Y-1.35
X1.65Y-1.45
X1.65Y-1.55
X1.75Y0.35
X1.75Y0.25
X1.75Y0.15
X1.75Y0.05
X1.75Y-0.05
X1.75Y-0.15
X1.75Y-0.25
X1.75Y-0.35
X1.75Y-0.45
X1.75Y-0.55
X1.75Y-0.65
X1.75Y-0.75
X1.75Y-0.85
X1.75Y-0.95
X1.75Y-1.05
X1.75Y-1.15
X1.75Y-1.25
X1.75Y-1.35
X1.75Y-1.45
X1.75Y-1.55
T7
X-1.8Y1.8
X-1.8Y-1.8
X1.8Y1.8
X1.8Y-1.8
T3
G00X-0.1701Y1.8795
M15
G01X-0.1701Y1.9031
M16
G05
G00X-0.1701Y1.7051
M15
G01X-0.1701Y1.7484
M16
G05
G00X0.1701Y1.8795
M15
G01X0.1701Y1.9031
M16
G05
G00X0.1701Y1.7051
M15
G01X0.1701Y1.7484
M16
G05
T6
G00X1.85Y1.2909
M15
G01X1.85Y1.4091
M16
G05
T0
M30
