%TF.GenerationSoftware,KiCad,Pcbnew,(6.0.5)*%
%TF.CreationDate,2022-08-30T13:23:16+01:00*%
%TF.ProjectId,STM32F405RGT6,53544d33-3246-4343-9035-524754362e6b,V22.08.0.1*%
%TF.SameCoordinates,PX544f408PY51135f0*%
%TF.FileFunction,Soldermask,Bot*%
%TF.FilePolarity,Negative*%
%FSLAX46Y46*%
G04 Gerber Fmt 4.6, Leading zero omitted, Abs format (unit mm)*
G04 Created by KiCad (PCBNEW (6.0.5)) date 2022-08-30 13:23:16*
%MOMM*%
%LPD*%
G01*
G04 APERTURE LIST*
%ADD10C,0.150000*%
%ADD11C,0.635500*%
%ADD12C,0.001000*%
%ADD13O,5.000000X8.000000*%
%ADD14C,6.400000*%
%ADD15C,1.400000*%
%ADD16R,1.700000X1.700000*%
%ADD17O,1.700000X1.700000*%
%ADD18C,0.650000*%
%ADD19O,1.000000X1.600000*%
%ADD20O,1.000000X2.100000*%
G04 APERTURE END LIST*
D10*
%TO.C,REF\u002A\u002A*%
X44582726Y18087620D02*
X44916059Y18563810D01*
X45154154Y18087620D02*
X45154154Y19087620D01*
X44773202Y19087620D01*
X44677964Y19040000D01*
X44630345Y18992381D01*
X44582726Y18897143D01*
X44582726Y18754286D01*
X44630345Y18659048D01*
X44677964Y18611429D01*
X44773202Y18563810D01*
X45154154Y18563810D01*
X44154154Y18087620D02*
X44154154Y19087620D01*
X43677964Y18611429D02*
X43344630Y18611429D01*
X43201773Y18087620D02*
X43677964Y18087620D01*
X43677964Y19087620D01*
X43201773Y19087620D01*
X42773202Y18087620D02*
X42773202Y19087620D01*
X42535107Y19087620D01*
X42392250Y19040000D01*
X42297011Y18944762D01*
X42249392Y18849524D01*
X42201773Y18659048D01*
X42201773Y18516191D01*
X42249392Y18325715D01*
X42297011Y18230477D01*
X42392250Y18135239D01*
X42535107Y18087620D01*
X42773202Y18087620D01*
D11*
X46442500Y18540000D02*
G75*
G03*
X46442500Y18540000I-317750J0D01*
G01*
X47712500Y16000000D02*
G75*
G03*
X47712500Y16000000I-317750J0D01*
G01*
X48982500Y18540000D02*
G75*
G03*
X48982500Y18540000I-317750J0D01*
G01*
X48982500Y13460000D02*
G75*
G03*
X48982500Y13460000I-317750J0D01*
G01*
G36*
X49299750Y18540000D02*
G01*
X49299750Y13460000D01*
X48664750Y12825000D01*
X48029750Y12825000D01*
X48029750Y15365000D01*
X47394750Y15365000D01*
X47394750Y16635000D01*
X48029750Y16635000D01*
X48029750Y17905000D01*
X46124750Y17905000D01*
X46124750Y19175000D01*
X48664750Y19175000D01*
X49299750Y18540000D01*
G37*
D12*
X49299750Y18540000D02*
X49299750Y13460000D01*
X48664750Y12825000D01*
X48029750Y12825000D01*
X48029750Y15365000D01*
X47394750Y15365000D01*
X47394750Y16635000D01*
X48029750Y16635000D01*
X48029750Y17905000D01*
X46124750Y17905000D01*
X46124750Y19175000D01*
X48664750Y19175000D01*
X49299750Y18540000D01*
%TD*%
D13*
%TO.C,GND1*%
X46990000Y34290000D03*
%TD*%
D14*
%TO.C,H1*%
X-45720000Y45720000D03*
%TD*%
%TO.C,H2*%
X-45720000Y-45720000D03*
%TD*%
%TO.C,H3*%
X45720000Y-45720000D03*
%TD*%
%TO.C,H4*%
X45720000Y45720000D03*
%TD*%
D15*
%TO.C,JP5*%
X45720000Y40640000D03*
X48260000Y40640000D03*
%TD*%
D16*
%TO.C,J3*%
X-41910000Y39370000D03*
D17*
X-44450000Y39370000D03*
X-41910000Y36830000D03*
X-44450000Y36830000D03*
X-41910000Y34290000D03*
X-44450000Y34290000D03*
X-41910000Y31750000D03*
X-44450000Y31750000D03*
X-41910000Y29210000D03*
X-44450000Y29210000D03*
X-41910000Y26670000D03*
X-44450000Y26670000D03*
X-41910000Y24130000D03*
X-44450000Y24130000D03*
X-41910000Y21590000D03*
X-44450000Y21590000D03*
X-41910000Y19050000D03*
X-44450000Y19050000D03*
X-41910000Y16510000D03*
X-44450000Y16510000D03*
X-41910000Y13970000D03*
X-44450000Y13970000D03*
X-41910000Y11430000D03*
X-44450000Y11430000D03*
X-41910000Y8890000D03*
X-44450000Y8890000D03*
X-41910000Y6350000D03*
X-44450000Y6350000D03*
X-41910000Y3810000D03*
X-44450000Y3810000D03*
X-41910000Y1270000D03*
X-44450000Y1270000D03*
X-41910000Y-1270000D03*
X-44450000Y-1270000D03*
X-41910000Y-3810000D03*
X-44450000Y-3810000D03*
X-41910000Y-6350000D03*
X-44450000Y-6350000D03*
X-41910000Y-8890000D03*
X-44450000Y-8890000D03*
X-41910000Y-11430000D03*
X-44450000Y-11430000D03*
X-41910000Y-13970000D03*
X-44450000Y-13970000D03*
X-41910000Y-16510000D03*
X-44450000Y-16510000D03*
X-41910000Y-19050000D03*
X-44450000Y-19050000D03*
X-41910000Y-21590000D03*
X-44450000Y-21590000D03*
X-41910000Y-24130000D03*
X-44450000Y-24130000D03*
X-41910000Y-26670000D03*
X-44450000Y-26670000D03*
X-41910000Y-29210000D03*
X-44450000Y-29210000D03*
X-41910000Y-31750000D03*
X-44450000Y-31750000D03*
X-41910000Y-34290000D03*
X-44450000Y-34290000D03*
X-41910000Y-36830000D03*
X-44450000Y-36830000D03*
X-41910000Y-39370000D03*
X-44450000Y-39370000D03*
%TD*%
D16*
%TO.C,J4*%
X44450000Y8890000D03*
D17*
X41910000Y8890000D03*
X44450000Y6350000D03*
X41910000Y6350000D03*
X44450000Y3810000D03*
X41910000Y3810000D03*
X44450000Y1270000D03*
X41910000Y1270000D03*
X44450000Y-1270000D03*
X41910000Y-1270000D03*
X44450000Y-3810000D03*
X41910000Y-3810000D03*
X44450000Y-6350000D03*
X41910000Y-6350000D03*
X44450000Y-8890000D03*
X41910000Y-8890000D03*
X44450000Y-11430000D03*
X41910000Y-11430000D03*
X44450000Y-13970000D03*
X41910000Y-13970000D03*
X44450000Y-16510000D03*
X41910000Y-16510000D03*
X44450000Y-19050000D03*
X41910000Y-19050000D03*
X44450000Y-21590000D03*
X41910000Y-21590000D03*
X44450000Y-24130000D03*
X41910000Y-24130000D03*
X44450000Y-26670000D03*
X41910000Y-26670000D03*
X44450000Y-29210000D03*
X41910000Y-29210000D03*
X44450000Y-31750000D03*
X41910000Y-31750000D03*
X44450000Y-34290000D03*
X41910000Y-34290000D03*
X44450000Y-36830000D03*
X41910000Y-36830000D03*
X44450000Y-39370000D03*
X41910000Y-39370000D03*
%TD*%
D16*
%TO.C,J1*%
X-15245000Y-44445000D03*
D17*
X-15245000Y-46985000D03*
X-17785000Y-44445000D03*
X-17785000Y-46985000D03*
X-20325000Y-44445000D03*
X-20325000Y-46985000D03*
X-22865000Y-44445000D03*
X-22865000Y-46985000D03*
X-25405000Y-44445000D03*
X-25405000Y-46985000D03*
%TD*%
D18*
%TO.C,J2*%
X-2890000Y44390000D03*
X2890000Y44390000D03*
D19*
X4320000Y48040000D03*
D20*
X-4320000Y43860000D03*
X4320000Y43860000D03*
D19*
X-4320000Y48040000D03*
%TD*%
D16*
%TO.C,JP1*%
X-5715000Y-27305000D03*
D17*
X-5715000Y-29845000D03*
%TD*%
M02*
