%TF.GenerationSoftware,KiCad,Pcbnew,(6.0.5)*%
%TF.CreationDate,2022-08-30T11:56:48+01:00*%
%TF.ProjectId,STM32F405RGT6,53544d33-3246-4343-9035-524754362e6b,V22.08.0.1*%
%TF.SameCoordinates,Original*%
%TF.FileFunction,Copper,L4,Bot*%
%TF.FilePolarity,Positive*%
%FSLAX46Y46*%
G04 Gerber Fmt 4.6, Leading zero omitted, Abs format (unit mm)*
G04 Created by KiCad (PCBNEW (6.0.5)) date 2022-08-30 11:56:48*
%MOMM*%
%LPD*%
G01*
G04 APERTURE LIST*
%ADD10C,0.150000*%
%TA.AperFunction,NonConductor*%
%ADD11C,0.150000*%
%TD*%
%TA.AperFunction,EtchedComponent*%
%ADD12C,0.635500*%
%TD*%
%TA.AperFunction,EtchedComponent*%
%ADD13C,0.001000*%
%TD*%
%TA.AperFunction,ComponentPad*%
%ADD14O,5.000000X8.000000*%
%TD*%
%TA.AperFunction,ComponentPad*%
%ADD15C,6.400000*%
%TD*%
%TA.AperFunction,ComponentPad*%
%ADD16C,1.400000*%
%TD*%
%TA.AperFunction,ComponentPad*%
%ADD17R,1.700000X1.700000*%
%TD*%
%TA.AperFunction,ComponentPad*%
%ADD18O,1.700000X1.700000*%
%TD*%
%TA.AperFunction,ComponentPad*%
%ADD19O,1.000000X1.600000*%
%TD*%
%TA.AperFunction,ComponentPad*%
%ADD20O,1.000000X2.100000*%
%TD*%
%TA.AperFunction,ViaPad*%
%ADD21C,0.700000*%
%TD*%
%TA.AperFunction,ViaPad*%
%ADD22C,0.800000*%
%TD*%
%TA.AperFunction,Conductor*%
%ADD23C,0.300000*%
%TD*%
%TA.AperFunction,Conductor*%
%ADD24C,0.500000*%
%TD*%
G04 APERTURE END LIST*
D10*
%TO.C,REF\u002A\u002A*%
D11*
X132987726Y-66926380D02*
X133321059Y-66450190D01*
X133559154Y-66926380D02*
X133559154Y-65926380D01*
X133178202Y-65926380D01*
X133082964Y-65974000D01*
X133035345Y-66021619D01*
X132987726Y-66116857D01*
X132987726Y-66259714D01*
X133035345Y-66354952D01*
X133082964Y-66402571D01*
X133178202Y-66450190D01*
X133559154Y-66450190D01*
X132559154Y-66926380D02*
X132559154Y-65926380D01*
X132082964Y-66402571D02*
X131749630Y-66402571D01*
X131606773Y-66926380D02*
X132082964Y-66926380D01*
X132082964Y-65926380D01*
X131606773Y-65926380D01*
X131178202Y-66926380D02*
X131178202Y-65926380D01*
X130940107Y-65926380D01*
X130797250Y-65974000D01*
X130702011Y-66069238D01*
X130654392Y-66164476D01*
X130606773Y-66354952D01*
X130606773Y-66497809D01*
X130654392Y-66688285D01*
X130702011Y-66783523D01*
X130797250Y-66878761D01*
X130940107Y-66926380D01*
X131178202Y-66926380D01*
D12*
X137387500Y-66474000D02*
G75*
G03*
X137387500Y-66474000I-317750J0D01*
G01*
X136117500Y-69014000D02*
G75*
G03*
X136117500Y-69014000I-317750J0D01*
G01*
X134847500Y-66474000D02*
G75*
G03*
X134847500Y-66474000I-317750J0D01*
G01*
X137387500Y-71554000D02*
G75*
G03*
X137387500Y-71554000I-317750J0D01*
G01*
G36*
X137704750Y-66474000D02*
G01*
X137704750Y-71554000D01*
X137069750Y-72189000D01*
X136434750Y-72189000D01*
X136434750Y-69649000D01*
X135799750Y-69649000D01*
X135799750Y-68379000D01*
X136434750Y-68379000D01*
X136434750Y-67109000D01*
X134529750Y-67109000D01*
X134529750Y-65839000D01*
X137069750Y-65839000D01*
X137704750Y-66474000D01*
G37*
D13*
X137704750Y-66474000D02*
X137704750Y-71554000D01*
X137069750Y-72189000D01*
X136434750Y-72189000D01*
X136434750Y-69649000D01*
X135799750Y-69649000D01*
X135799750Y-68379000D01*
X136434750Y-68379000D01*
X136434750Y-67109000D01*
X134529750Y-67109000D01*
X134529750Y-65839000D01*
X137069750Y-65839000D01*
X137704750Y-66474000D01*
%TD*%
D14*
%TO.P,GND1,1,1*%
%TO.N,GND*%
X135395000Y-50724000D03*
%TD*%
D15*
%TO.P,H1,1*%
%TO.N,N/C*%
X42685000Y-39294000D03*
%TD*%
%TO.P,H2,1*%
%TO.N,N/C*%
X42685000Y-130734000D03*
%TD*%
%TO.P,H3,1*%
%TO.N,N/C*%
X134125000Y-130734000D03*
%TD*%
%TO.P,H4,1,1*%
%TO.N,Net-(H4-Pad1)*%
X134125000Y-39294000D03*
%TD*%
D16*
%TO.P,JP5,1,1*%
%TO.N,Net-(H4-Pad1)*%
X134125000Y-44374000D03*
%TO.P,JP5,2,2*%
%TO.N,GND*%
X136665000Y-44374000D03*
%TD*%
D17*
%TO.P,J3,1,Pin_1*%
%TO.N,V+*%
X46495000Y-45644000D03*
D18*
%TO.P,J3,2,Pin_2*%
X43955000Y-45644000D03*
%TO.P,J3,3,Pin_3*%
%TO.N,V-*%
X46495000Y-48184000D03*
%TO.P,J3,4,Pin_4*%
X43955000Y-48184000D03*
%TO.P,J3,5,Pin_5*%
%TO.N,+12V*%
X46495000Y-50724000D03*
%TO.P,J3,6,Pin_6*%
%TO.N,GND*%
X43955000Y-50724000D03*
%TO.P,J3,7,Pin_7*%
%TO.N,-12V*%
X46495000Y-53264000D03*
%TO.P,J3,8,Pin_8*%
%TO.N,GND*%
X43955000Y-53264000D03*
%TO.P,J3,9,Pin_9*%
%TO.N,+5V*%
X46495000Y-55804000D03*
%TO.P,J3,10,Pin_10*%
%TO.N,GND*%
X43955000Y-55804000D03*
%TO.P,J3,11,Pin_11*%
%TO.N,+3V3*%
X46495000Y-58344000D03*
%TO.P,J3,12,Pin_12*%
%TO.N,GND*%
X43955000Y-58344000D03*
%TO.P,J3,13,Pin_13*%
%TO.N,RX1*%
X46495000Y-60884000D03*
%TO.P,J3,14,Pin_14*%
%TO.N,TX1*%
X43955000Y-60884000D03*
%TO.P,J3,15,Pin_15*%
%TO.N,RX2*%
X46495000Y-63424000D03*
%TO.P,J3,16,Pin_16*%
%TO.N,TX2*%
X43955000Y-63424000D03*
%TO.P,J3,17,Pin_17*%
%TO.N,MOSI1*%
X46495000Y-65964000D03*
%TO.P,J3,18,Pin_18*%
%TO.N,MISO1*%
X43955000Y-65964000D03*
%TO.P,J3,19,Pin_19*%
%TO.N,CS1*%
X46495000Y-68504000D03*
%TO.P,J3,20,Pin_20*%
%TO.N,SCLK1*%
X43955000Y-68504000D03*
%TO.P,J3,21,Pin_21*%
%TO.N,CS2*%
X46495000Y-71044000D03*
%TO.P,J3,22,Pin_22*%
%TO.N,CS3*%
X43955000Y-71044000D03*
%TO.P,J3,23,Pin_23*%
%TO.N,SCLK2*%
X46495000Y-73584000D03*
%TO.P,J3,24,Pin_24*%
%TO.N,CS4*%
X43955000Y-73584000D03*
%TO.P,J3,25,Pin_25*%
%TO.N,MOSI2*%
X46495000Y-76124000D03*
%TO.P,J3,26,Pin_26*%
%TO.N,MISO2*%
X43955000Y-76124000D03*
%TO.P,J3,27,Pin_27*%
%TO.N,SCL1*%
X46495000Y-78664000D03*
%TO.P,J3,28,Pin_28*%
%TO.N,SDA1*%
X43955000Y-78664000D03*
%TO.P,J3,29,Pin_29*%
%TO.N,SCL2*%
X46495000Y-81204000D03*
%TO.P,J3,30,Pin_30*%
%TO.N,SDA2*%
X43955000Y-81204000D03*
%TO.P,J3,31,Pin_31*%
%TO.N,GPIO1~*%
X46495000Y-83744000D03*
%TO.P,J3,32,Pin_32*%
%TO.N,GPIO2~*%
X43955000Y-83744000D03*
%TO.P,J3,33,Pin_33*%
%TO.N,GPIO3~*%
X46495000Y-86284000D03*
%TO.P,J3,34,Pin_34*%
%TO.N,GPIO4~*%
X43955000Y-86284000D03*
%TO.P,J3,35,Pin_35*%
%TO.N,GPIO5*%
X46495000Y-88824000D03*
%TO.P,J3,36,Pin_36*%
%TO.N,GPIO6*%
X43955000Y-88824000D03*
%TO.P,J3,37,Pin_37*%
%TO.N,GPIO7*%
X46495000Y-91364000D03*
%TO.P,J3,38,Pin_38*%
%TO.N,GPIO8*%
X43955000Y-91364000D03*
%TO.P,J3,39,Pin_39*%
%TO.N,GPIO9*%
X46495000Y-93904000D03*
%TO.P,J3,40,Pin_40*%
%TO.N,GPIO10*%
X43955000Y-93904000D03*
%TO.P,J3,41,Pin_41*%
%TO.N,GPIO11*%
X46495000Y-96444000D03*
%TO.P,J3,42,Pin_42*%
%TO.N,GPIO12*%
X43955000Y-96444000D03*
%TO.P,J3,43,Pin_43*%
%TO.N,GPIO13*%
X46495000Y-98984000D03*
%TO.P,J3,44,Pin_44*%
%TO.N,GPIO14*%
X43955000Y-98984000D03*
%TO.P,J3,45,Pin_45*%
%TO.N,GPIO15~*%
X46495000Y-101524000D03*
%TO.P,J3,46,Pin_46*%
%TO.N,GPIO16~*%
X43955000Y-101524000D03*
%TO.P,J3,47,Pin_47*%
%TO.N,GPIO17~*%
X46495000Y-104064000D03*
%TO.P,J3,48,Pin_48*%
%TO.N,GPIO18~*%
X43955000Y-104064000D03*
%TO.P,J3,49,Pin_49*%
%TO.N,GPIO19~*%
X46495000Y-106604000D03*
%TO.P,J3,50,Pin_50*%
%TO.N,GPIO20~*%
X43955000Y-106604000D03*
%TO.P,J3,51,Pin_51*%
%TO.N,GPIO21*%
X46495000Y-109144000D03*
%TO.P,J3,52,Pin_52*%
%TO.N,GPIO22*%
X43955000Y-109144000D03*
%TO.P,J3,53,Pin_53*%
%TO.N,GPIO23*%
X46495000Y-111684000D03*
%TO.P,J3,54,Pin_54*%
%TO.N,GPIO24*%
X43955000Y-111684000D03*
%TO.P,J3,55,Pin_55*%
%TO.N,GPIO25*%
X46495000Y-114224000D03*
%TO.P,J3,56,Pin_56*%
%TO.N,GPIO26*%
X43955000Y-114224000D03*
%TO.P,J3,57,Pin_57*%
%TO.N,GPIO27*%
X46495000Y-116764000D03*
%TO.P,J3,58,Pin_58*%
%TO.N,GPIO28*%
X43955000Y-116764000D03*
%TO.P,J3,59,Pin_59*%
%TO.N,GPIO29*%
X46495000Y-119304000D03*
%TO.P,J3,60,Pin_60*%
%TO.N,GPIO30*%
X43955000Y-119304000D03*
%TO.P,J3,61,Pin_61*%
%TO.N,+5V*%
X46495000Y-121844000D03*
%TO.P,J3,62,Pin_62*%
%TO.N,GND*%
X43955000Y-121844000D03*
%TO.P,J3,63,Pin_63*%
%TO.N,+3V3*%
X46495000Y-124384000D03*
%TO.P,J3,64,Pin_64*%
%TO.N,GND*%
X43955000Y-124384000D03*
%TD*%
D17*
%TO.P,J4,1,Pin_1*%
%TO.N,GND*%
X132855000Y-76124000D03*
D18*
%TO.P,J4,2,Pin_2*%
%TO.N,+12VA*%
X130315000Y-76124000D03*
%TO.P,J4,3,Pin_3*%
%TO.N,GND*%
X132855000Y-78664000D03*
%TO.P,J4,4,Pin_4*%
%TO.N,-12VA*%
X130315000Y-78664000D03*
%TO.P,J4,5,Pin_5*%
%TO.N,GND*%
X132855000Y-81204000D03*
%TO.P,J4,6,Pin_6*%
X130315000Y-81204000D03*
%TO.P,J4,7,Pin_7*%
X132855000Y-83744000D03*
%TO.P,J4,8,Pin_8*%
X130315000Y-83744000D03*
%TO.P,J4,9,Pin_9*%
%TO.N,VREF1*%
X132855000Y-86284000D03*
%TO.P,J4,10,Pin_10*%
%TO.N,+5VA*%
X130315000Y-86284000D03*
%TO.P,J4,11,Pin_11*%
%TO.N,VREF2*%
X132855000Y-88824000D03*
%TO.P,J4,12,Pin_12*%
%TO.N,-5VA*%
X130315000Y-88824000D03*
%TO.P,J4,13,Pin_13*%
%TO.N,-A1*%
X132855000Y-91364000D03*
%TO.P,J4,14,Pin_14*%
%TO.N,+A1*%
X130315000Y-91364000D03*
%TO.P,J4,15,Pin_15*%
%TO.N,-A2*%
X132855000Y-93904000D03*
%TO.P,J4,16,Pin_16*%
%TO.N,+A2*%
X130315000Y-93904000D03*
%TO.P,J4,17,Pin_17*%
%TO.N,-A3*%
X132855000Y-96444000D03*
%TO.P,J4,18,Pin_18*%
%TO.N,+A3*%
X130315000Y-96444000D03*
%TO.P,J4,19,Pin_19*%
%TO.N,-A4*%
X132855000Y-98984000D03*
%TO.P,J4,20,Pin_20*%
%TO.N,+A4*%
X130315000Y-98984000D03*
%TO.P,J4,21,Pin_21*%
%TO.N,-A5*%
X132855000Y-101524000D03*
%TO.P,J4,22,Pin_22*%
%TO.N,+A5*%
X130315000Y-101524000D03*
%TO.P,J4,23,Pin_23*%
%TO.N,-A6*%
X132855000Y-104064000D03*
%TO.P,J4,24,Pin_24*%
%TO.N,+A6*%
X130315000Y-104064000D03*
%TO.P,J4,25,Pin_25*%
%TO.N,-A7*%
X132855000Y-106604000D03*
%TO.P,J4,26,Pin_26*%
%TO.N,+A7*%
X130315000Y-106604000D03*
%TO.P,J4,27,Pin_27*%
%TO.N,-A8*%
X132855000Y-109144000D03*
%TO.P,J4,28,Pin_28*%
%TO.N,+A8*%
X130315000Y-109144000D03*
%TO.P,J4,29,Pin_29*%
%TO.N,-A9*%
X132855000Y-111684000D03*
%TO.P,J4,30,Pin_30*%
%TO.N,+A9*%
X130315000Y-111684000D03*
%TO.P,J4,31,Pin_31*%
%TO.N,-A10*%
X132855000Y-114224000D03*
%TO.P,J4,32,Pin_32*%
%TO.N,+A10*%
X130315000Y-114224000D03*
%TO.P,J4,33,Pin_33*%
%TO.N,-A11*%
X132855000Y-116764000D03*
%TO.P,J4,34,Pin_34*%
%TO.N,+A11*%
X130315000Y-116764000D03*
%TO.P,J4,35,Pin_35*%
%TO.N,-A12*%
X132855000Y-119304000D03*
%TO.P,J4,36,Pin_36*%
%TO.N,+A12*%
X130315000Y-119304000D03*
%TO.P,J4,37,Pin_37*%
%TO.N,GND*%
X132855000Y-121844000D03*
%TO.P,J4,38,Pin_38*%
%TO.N,+5VA*%
X130315000Y-121844000D03*
%TO.P,J4,39,Pin_39*%
%TO.N,GND*%
X132855000Y-124384000D03*
%TO.P,J4,40,Pin_40*%
%TO.N,-5VA*%
X130315000Y-124384000D03*
%TD*%
D17*
%TO.P,J1,1,Pin_1*%
%TO.N,NRST*%
X73160000Y-129459000D03*
D18*
%TO.P,J1,2,Pin_2*%
%TO.N,SWCLK*%
X73160000Y-131999000D03*
%TO.P,J1,3,Pin_3*%
%TO.N,unconnected-(J1-Pad3)*%
X70620000Y-129459000D03*
%TO.P,J1,4,Pin_4*%
%TO.N,SWDIO*%
X70620000Y-131999000D03*
%TO.P,J1,5,Pin_5*%
%TO.N,GND*%
X68080000Y-129459000D03*
%TO.P,J1,6,Pin_6*%
X68080000Y-131999000D03*
%TO.P,J1,7,Pin_7*%
%TO.N,/DEBUG_5V*%
X65540000Y-129459000D03*
%TO.P,J1,8,Pin_8*%
X65540000Y-131999000D03*
%TO.P,J1,9,Pin_9*%
%TO.N,unconnected-(J1-Pad9)*%
X63000000Y-129459000D03*
%TO.P,J1,10,Pin_10*%
%TO.N,unconnected-(J1-Pad10)*%
X63000000Y-131999000D03*
%TD*%
D19*
%TO.P,J2,S1,SHIELD*%
%TO.N,unconnected-(J2-PadS1)*%
X92725000Y-36974000D03*
D20*
X84085000Y-41154000D03*
X92725000Y-41154000D03*
D19*
X84085000Y-36974000D03*
%TD*%
D17*
%TO.P,JP1,1,A*%
%TO.N,/BOOT0*%
X82690000Y-112319000D03*
D18*
%TO.P,JP1,2,B*%
%TO.N,+3V3*%
X82690000Y-114859000D03*
%TD*%
D21*
%TO.N,GND*%
X87135000Y-49454000D03*
X92215000Y-69774000D03*
X92215000Y-65964000D03*
X92215000Y-59614000D03*
X92215000Y-55804000D03*
X94755000Y-65964000D03*
X89675000Y-65964000D03*
X89675000Y-55804000D03*
X89675000Y-59614000D03*
X98565000Y-100254000D03*
X96025000Y-97714000D03*
X107455000Y-95174000D03*
X107455000Y-92634000D03*
X107455000Y-110414000D03*
X107455000Y-107874000D03*
X107455000Y-102794000D03*
X117615000Y-95174000D03*
X117615000Y-97714000D03*
X117615000Y-105334000D03*
X117615000Y-116764000D03*
X121425000Y-82474000D03*
X121425000Y-87554000D03*
X121425000Y-92634000D03*
X121425000Y-97714000D03*
X121425000Y-105334000D03*
X121425000Y-110414000D03*
X121425000Y-115494000D03*
X121425000Y-120574000D03*
X90945000Y-49454000D03*
X80785000Y-59614000D03*
X83325000Y-59614000D03*
X101105000Y-72314000D03*
X75705000Y-72314000D03*
X63005000Y-78664000D03*
X101105000Y-78664000D03*
X88405000Y-85014000D03*
X75705000Y-91364000D03*
X101105000Y-91364000D03*
X82055000Y-97714000D03*
X63005000Y-97714000D03*
X63005000Y-104064000D03*
X82055000Y-104064000D03*
X101105000Y-110414000D03*
X94755000Y-110414000D03*
X88405000Y-110414000D03*
X82055000Y-110414000D03*
X63005000Y-110414000D03*
X107455000Y-129464000D03*
X126505000Y-129464000D03*
X126505000Y-123114000D03*
X126505000Y-116764000D03*
X126505000Y-85014000D03*
X126505000Y-78664000D03*
X113805000Y-78664000D03*
X132855000Y-72314000D03*
X126505000Y-72314000D03*
X107455000Y-72314000D03*
X113805000Y-72314000D03*
X101105000Y-65964000D03*
X75705000Y-65964000D03*
X69355000Y-65964000D03*
X82055000Y-46914000D03*
X50305000Y-46914000D03*
X56655000Y-46914000D03*
X69355000Y-46914000D03*
X63005000Y-46914000D03*
X75705000Y-46914000D03*
X94755000Y-59614000D03*
X94755000Y-53264000D03*
X101105000Y-53264000D03*
X101105000Y-59614000D03*
X107455000Y-65964000D03*
X113805000Y-65964000D03*
X120155000Y-65964000D03*
X126505000Y-65964000D03*
X126505000Y-59614000D03*
X120155000Y-59614000D03*
X113805000Y-59614000D03*
X107455000Y-59614000D03*
X107455000Y-53264000D03*
X113805000Y-53264000D03*
X126505000Y-53264000D03*
X120155000Y-53264000D03*
X120155000Y-46914000D03*
X126505000Y-46914000D03*
X126505000Y-40564000D03*
X120155000Y-40564000D03*
X113805000Y-40564000D03*
X101105000Y-40564000D03*
X75705000Y-40564000D03*
X69355000Y-40564000D03*
X63005000Y-40564000D03*
X56655000Y-40564000D03*
X50305000Y-40564000D03*
D22*
X66180000Y-105334000D03*
D21*
X117615000Y-128829000D03*
X80785000Y-77394000D03*
D22*
X72530000Y-106604000D03*
D21*
X90958029Y-89376526D03*
X97295000Y-79934000D03*
X100470000Y-45644000D03*
X91961000Y-46660000D03*
X85340000Y-100144000D03*
X61595000Y-104064000D03*
D22*
X72530000Y-107874000D03*
D21*
X100470000Y-44374000D03*
X92760931Y-87921185D03*
X92215000Y-43104000D03*
X103645000Y-43104000D03*
X99835000Y-128829000D03*
X97295000Y-128829000D03*
X80785000Y-78664000D03*
X80785000Y-91364000D03*
X98565000Y-81204000D03*
X80150000Y-100254000D03*
X64770000Y-109144000D03*
X109360000Y-130099000D03*
X85230000Y-109779000D03*
X107455000Y-43104000D03*
X115075000Y-40564000D03*
X82055000Y-92634000D03*
X80785000Y-97714000D03*
X85230000Y-102159000D03*
X82690000Y-41834000D03*
X83960000Y-88189000D03*
X91961000Y-47676000D03*
X89340621Y-93417119D03*
X97295000Y-89459000D03*
X89340621Y-95322119D03*
D22*
X73800000Y-105334000D03*
D21*
X106185000Y-81204000D03*
X84595000Y-43104000D03*
X91580000Y-130099000D03*
X103645000Y-41199000D03*
X85865000Y-46660000D03*
X73800000Y-102159000D03*
X107455000Y-41199000D03*
X85865000Y-47676000D03*
X115075000Y-128829000D03*
X97295000Y-78664000D03*
X94120000Y-41834000D03*
D22*
X72530000Y-105334000D03*
D21*
%TO.N,GPIO1~*%
X56655000Y-53264000D03*
X54115000Y-83744000D03*
X88405000Y-67234000D03*
X87135000Y-53264000D03*
%TO.N,+5V*%
X82055000Y-50724000D03*
X54115000Y-50724000D03*
X99200000Y-50724000D03*
X48400000Y-128194000D03*
X48400000Y-121844000D03*
X48400000Y-111684000D03*
X48400000Y-55804000D03*
X52845000Y-55804000D03*
%TO.N,GPIO2~*%
X87135000Y-67869000D03*
X57925000Y-54534000D03*
X85865000Y-54534000D03*
X55385000Y-85014000D03*
%TO.N,GPIO3~*%
X84595000Y-55804000D03*
X85865000Y-68504000D03*
X56655000Y-86284000D03*
X59195000Y-55804000D03*
%TO.N,GPIO4~*%
X57925000Y-87554000D03*
X60465000Y-57074000D03*
X82690000Y-57074000D03*
X84595000Y-69139000D03*
%TO.N,GPIO15~*%
X113805000Y-122479000D03*
X55385000Y-107239000D03*
D22*
X55385000Y-102794000D03*
D21*
X56655000Y-122479000D03*
X115075000Y-85014000D03*
%TO.N,GPIO16~*%
X108725000Y-134608500D03*
X116345000Y-84379000D03*
X109360000Y-132004000D03*
X55385000Y-123749000D03*
X79579500Y-123749000D03*
X81420000Y-134544000D03*
D22*
X54115000Y-104064000D03*
D21*
X116345000Y-131369000D03*
D22*
%TO.N,GPIO17~*%
X52845000Y-105334000D03*
X117615000Y-71044000D03*
X52845000Y-134544000D03*
X118885000Y-125019000D03*
X81420000Y-125019000D03*
X81610000Y-132829000D03*
D21*
%TO.N,GPIO14*%
X113805000Y-85649000D03*
X56655000Y-101524000D03*
X112535000Y-121209000D03*
X57925000Y-121209000D03*
%TO.N,GPIO13*%
X57925000Y-100254000D03*
X112535000Y-86284000D03*
X59195000Y-119939000D03*
X111265000Y-119939000D03*
%TO.N,GPIO12*%
X109995000Y-118669000D03*
X59195000Y-98984000D03*
X60465000Y-118669000D03*
X111265000Y-86919000D03*
%TO.N,GPIO11*%
X61735000Y-117399000D03*
X109995000Y-87554000D03*
X108725000Y-117399000D03*
X60465000Y-97714000D03*
%TO.N,GPIO7*%
X61735000Y-91364000D03*
X63005000Y-80569000D03*
%TO.N,GPIO6*%
X63005000Y-60884000D03*
X79515000Y-71679000D03*
X76975000Y-60884000D03*
X60465000Y-90094000D03*
%TO.N,GPIO5*%
X61735000Y-58344000D03*
X80785000Y-58344000D03*
X59195000Y-88824000D03*
X83325000Y-69774000D03*
%TO.N,GPIO18~*%
X51575000Y-125019000D03*
X118250000Y-133909000D03*
D22*
X51575000Y-106604000D03*
D21*
X118885000Y-69774000D03*
X87770000Y-132639000D03*
X87770000Y-127559000D03*
D22*
%TO.N,SCL2*%
X51154500Y-81204000D03*
X52845000Y-79934000D03*
D21*
%TO.N,SDA1*%
X73800000Y-91364000D03*
X75070000Y-109779000D03*
%TO.N,SCL1*%
X73800000Y-106604000D03*
X71895000Y-89459000D03*
D22*
X64275000Y-83109000D03*
X65545000Y-89459000D03*
%TO.N,MISO2*%
X74435000Y-78549500D03*
D21*
X74435000Y-81839000D03*
D22*
%TO.N,MOSI2*%
X73165000Y-76124000D03*
D21*
X73165000Y-82474000D03*
%TO.N,CS4*%
X68720000Y-86919000D03*
D22*
X68085000Y-74854000D03*
D21*
%TO.N,SCLK2*%
X75705000Y-81204000D03*
D22*
X74435000Y-73584000D03*
%TO.N,CS3*%
X64275000Y-72314000D03*
D21*
X65545000Y-84379000D03*
%TO.N,CS2*%
X71895000Y-83109000D03*
D22*
X71895000Y-72314000D03*
D21*
%TO.N,SCLK1*%
X70625000Y-83744000D03*
D22*
X70625000Y-69774000D03*
D21*
%TO.N,CS1*%
X76975000Y-68504000D03*
X78880000Y-80569000D03*
%TO.N,MISO1*%
X69355000Y-84379000D03*
D22*
X68085000Y-67234000D03*
D21*
%TO.N,MOSI1*%
X66815000Y-84379000D03*
D22*
X65545000Y-65964000D03*
D21*
%TO.N,TX1*%
X82055000Y-70409000D03*
X81420000Y-62154000D03*
%TO.N,RX1*%
X78880000Y-59614000D03*
X80785000Y-71044000D03*
%TO.N,+A10*%
X108725000Y-112954000D03*
X108725000Y-88189000D03*
%TO.N,+A9*%
X104280000Y-88824000D03*
X104280000Y-110414000D03*
%TO.N,+A8*%
X87770000Y-88824000D03*
X89675000Y-109144000D03*
%TO.N,+A7*%
X88641121Y-88599830D03*
X91580000Y-106604000D03*
%TO.N,+A6*%
X93485000Y-104064000D03*
X89269436Y-87956149D03*
%TO.N,+A5*%
X95390000Y-101524000D03*
X90273550Y-88792922D03*
%TO.N,+A4*%
X103010000Y-99619000D03*
X98565000Y-91999000D03*
%TO.N,+A3*%
X100470000Y-98349000D03*
X97295000Y-93269000D03*
%TO.N,+A2*%
X95390000Y-94539000D03*
X97930000Y-97079000D03*
%TO.N,/USB_5V*%
X90945000Y-43739000D03*
X85865000Y-43739000D03*
%TO.N,TX2*%
X102375000Y-64059000D03*
X92850000Y-64694000D03*
X103645000Y-82474000D03*
X89040000Y-64694000D03*
%TO.N,RX2*%
X99835000Y-63424000D03*
X92850000Y-63424000D03*
X89040000Y-63424000D03*
X102375000Y-81839000D03*
%TO.N,SWDIO*%
X76340000Y-130734000D03*
X76975000Y-79299000D03*
%TO.N,SWCLK*%
X80785000Y-79934000D03*
X77610000Y-132004000D03*
%TO.N,/BOOT0*%
X70625000Y-112954000D03*
X69990000Y-88189000D03*
%TO.N,/VDD_Decoupling*%
X83325000Y-90094000D03*
X96025000Y-89459000D03*
X83325000Y-79934000D03*
X93485000Y-76759000D03*
X84455500Y-91999000D03*
%TO.N,NRST*%
X86500000Y-131369000D03*
X86574444Y-97153444D03*
%TO.N,+3V3*%
X105550000Y-102794000D03*
X50305000Y-124384000D03*
X54115000Y-58344000D03*
X75070000Y-114859000D03*
X73800000Y-111684000D03*
X68085000Y-110414000D03*
X104915000Y-74219000D03*
X50305000Y-58344000D03*
X105550000Y-128194000D03*
X82055000Y-51994000D03*
X83960000Y-128194000D03*
X55385000Y-51994000D03*
X105550000Y-114859000D03*
X105550000Y-126289000D03*
X50305000Y-112954000D03*
X104915000Y-51994000D03*
X68085000Y-101524000D03*
%TD*%
D23*
%TO.N,GPIO1~*%
X88340489Y-54469489D02*
X87135000Y-53264000D01*
X88340489Y-67169489D02*
X88340489Y-54469489D01*
X88405000Y-67234000D02*
X88340489Y-67169489D01*
%TO.N,GPIO2~*%
X85865000Y-54534000D02*
X87135000Y-55804000D01*
X87135000Y-55804000D02*
X87135000Y-67869000D01*
%TO.N,GPIO3~*%
X85865000Y-57074000D02*
X84595000Y-55804000D01*
X85865000Y-68504000D02*
X85865000Y-57074000D01*
%TO.N,GPIO4~*%
X84595000Y-58979000D02*
X82690000Y-57074000D01*
X84595000Y-69139000D02*
X84595000Y-58979000D01*
%TO.N,GPIO5*%
X83325000Y-60884000D02*
X80785000Y-58344000D01*
X83325000Y-69774000D02*
X83325000Y-60884000D01*
%TO.N,TX1*%
X82055000Y-62789000D02*
X81420000Y-62154000D01*
X82055000Y-70409000D02*
X82055000Y-62789000D01*
%TO.N,RX1*%
X80150000Y-60884000D02*
X78880000Y-59614000D01*
X80150000Y-64658286D02*
X80150000Y-60884000D01*
X80785000Y-65293286D02*
X80150000Y-64658286D01*
X80785000Y-71044000D02*
X80785000Y-65293286D01*
%TO.N,GPIO6*%
X78245000Y-64694000D02*
X78245000Y-62154000D01*
X79515000Y-65964000D02*
X78245000Y-64694000D01*
X78245000Y-62154000D02*
X76975000Y-60884000D01*
X79515000Y-71679000D02*
X79515000Y-65964000D01*
%TO.N,CS1*%
X78245000Y-79934000D02*
X78880000Y-80569000D01*
X78245000Y-69774000D02*
X78245000Y-79934000D01*
X76975000Y-68504000D02*
X78245000Y-69774000D01*
%TO.N,SWDIO*%
X76975000Y-80569000D02*
X76975000Y-79299000D01*
X77610000Y-129464000D02*
X76340000Y-130734000D01*
X77610000Y-81204000D02*
X77610000Y-129464000D01*
X76975000Y-80569000D02*
X77610000Y-81204000D01*
%TO.N,GPIO1~*%
X54115000Y-83744000D02*
X55385000Y-82474000D01*
X55385000Y-82474000D02*
X55385000Y-54534000D01*
X55385000Y-54534000D02*
X56655000Y-53264000D01*
D24*
%TO.N,+5V*%
X54115000Y-50724000D02*
X52845000Y-51994000D01*
X99200000Y-50724000D02*
X82055000Y-50724000D01*
X48400000Y-121844000D02*
X48400000Y-111684000D01*
X48400000Y-128194000D02*
X48400000Y-121844000D01*
X52845000Y-51994000D02*
X52845000Y-55804000D01*
X48400000Y-111684000D02*
X48400000Y-55804000D01*
D23*
%TO.N,GPIO2~*%
X56655000Y-55804000D02*
X57925000Y-54534000D01*
X56655000Y-83744000D02*
X56655000Y-55804000D01*
X55385000Y-85014000D02*
X56655000Y-83744000D01*
%TO.N,GPIO3~*%
X57925000Y-85014000D02*
X57925000Y-57074000D01*
X57925000Y-57074000D02*
X59195000Y-55804000D01*
X56655000Y-86284000D02*
X57925000Y-85014000D01*
%TO.N,GPIO4~*%
X59195000Y-86284000D02*
X59195000Y-58344000D01*
X59195000Y-58344000D02*
X60465000Y-57074000D01*
X57925000Y-87554000D02*
X59195000Y-86284000D01*
%TO.N,GPIO15~*%
X56655000Y-122479000D02*
X55385000Y-121209000D01*
X55385000Y-107239000D02*
X55385000Y-102794000D01*
X55385000Y-121209000D02*
X55385000Y-107239000D01*
X115075000Y-121209000D02*
X115075000Y-85014000D01*
X113805000Y-122479000D02*
X115075000Y-121209000D01*
%TO.N,GPIO16~*%
X80150000Y-133274000D02*
X81420000Y-134544000D01*
X54115000Y-122479000D02*
X54115000Y-104064000D01*
X109360000Y-133973500D02*
X109360000Y-132004000D01*
X55385000Y-123749000D02*
X54115000Y-122479000D01*
X80150000Y-124319500D02*
X80150000Y-133274000D01*
X79579500Y-123749000D02*
X80150000Y-124319500D01*
X116345000Y-131369000D02*
X116345000Y-84379000D01*
X108725000Y-134608500D02*
X109360000Y-133973500D01*
%TO.N,GPIO17~*%
X118885000Y-72314000D02*
X118885000Y-73584000D01*
X118885000Y-73584000D02*
X118885000Y-125019000D01*
X117615000Y-71044000D02*
X118885000Y-72314000D01*
X52845000Y-105334000D02*
X52845000Y-134544000D01*
X81420000Y-132639000D02*
X81610000Y-132829000D01*
X81420000Y-125019000D02*
X81420000Y-132639000D01*
%TO.N,GPIO14*%
X113805000Y-119939000D02*
X113805000Y-85649000D01*
X56655000Y-119939000D02*
X56655000Y-101524000D01*
X57925000Y-121209000D02*
X56655000Y-119939000D01*
X112535000Y-121209000D02*
X113805000Y-119939000D01*
%TO.N,GPIO13*%
X59195000Y-119939000D02*
X57925000Y-118669000D01*
X111265000Y-119939000D02*
X112535000Y-118669000D01*
X112535000Y-118669000D02*
X112535000Y-86284000D01*
X57925000Y-118669000D02*
X57925000Y-100254000D01*
%TO.N,GPIO12*%
X111265000Y-117399000D02*
X111265000Y-86919000D01*
X59195000Y-117399000D02*
X60465000Y-118669000D01*
X109995000Y-118669000D02*
X111265000Y-117399000D01*
X59195000Y-98984000D02*
X59195000Y-117399000D01*
%TO.N,GPIO11*%
X60465000Y-116129000D02*
X61735000Y-117399000D01*
X108725000Y-117399000D02*
X109995000Y-116129000D01*
X60465000Y-97714000D02*
X60465000Y-116129000D01*
X109995000Y-116129000D02*
X109995000Y-87554000D01*
%TO.N,GPIO7*%
X63005000Y-80569000D02*
X63005000Y-90094000D01*
X63005000Y-90094000D02*
X61735000Y-91364000D01*
%TO.N,GPIO6*%
X60465000Y-90094000D02*
X61735000Y-88824000D01*
X61735000Y-62154000D02*
X63005000Y-60884000D01*
X61735000Y-88824000D02*
X61735000Y-62154000D01*
%TO.N,GPIO5*%
X60465000Y-87554000D02*
X60465000Y-59614000D01*
X60465000Y-59614000D02*
X61735000Y-58344000D01*
X59195000Y-88824000D02*
X60465000Y-87554000D01*
%TO.N,GPIO18~*%
X120155000Y-132004000D02*
X118250000Y-133909000D01*
X120155000Y-71044000D02*
X120155000Y-132004000D01*
X118885000Y-69774000D02*
X120155000Y-71044000D01*
X51575000Y-125019000D02*
X51575000Y-106604000D01*
X87770000Y-132639000D02*
X87770000Y-127559000D01*
%TO.N,SCL2*%
X52424500Y-79934000D02*
X51154500Y-81204000D01*
X52845000Y-79934000D02*
X52424500Y-79934000D01*
%TO.N,SDA1*%
X75070000Y-109779000D02*
X76340000Y-108509000D01*
X76340000Y-108509000D02*
X76340000Y-93904000D01*
X76340000Y-93904000D02*
X73800000Y-91364000D01*
%TO.N,SCL1*%
X73800000Y-106604000D02*
X75070000Y-105334000D01*
X64275000Y-83109000D02*
X64275000Y-88189000D01*
X71895000Y-91999000D02*
X71895000Y-89459000D01*
X75070000Y-105334000D02*
X75070000Y-95174000D01*
X64275000Y-88189000D02*
X65545000Y-89459000D01*
X75070000Y-95174000D02*
X71895000Y-91999000D01*
%TO.N,MISO2*%
X74435000Y-78549500D02*
X74435000Y-81839000D01*
%TO.N,MOSI2*%
X73165000Y-76124000D02*
X73165000Y-82474000D01*
%TO.N,CS4*%
X68085000Y-86284000D02*
X68720000Y-86919000D01*
X68085000Y-74854000D02*
X68085000Y-86284000D01*
%TO.N,SCLK2*%
X74435000Y-73584000D02*
X75705000Y-74854000D01*
X75705000Y-74854000D02*
X75705000Y-81204000D01*
%TO.N,CS3*%
X65545000Y-73584000D02*
X64275000Y-72314000D01*
X65545000Y-84379000D02*
X65545000Y-73584000D01*
%TO.N,CS2*%
X71895000Y-72314000D02*
X71895000Y-83109000D01*
%TO.N,SCLK1*%
X70625000Y-69774000D02*
X70625000Y-83744000D01*
%TO.N,MISO1*%
X68085000Y-67234000D02*
X69355000Y-68504000D01*
X69355000Y-68504000D02*
X69355000Y-84379000D01*
%TO.N,MOSI1*%
X66815000Y-67234000D02*
X66815000Y-84379000D01*
X65545000Y-65964000D02*
X66815000Y-67234000D01*
%TO.N,+A10*%
X108725000Y-112954000D02*
X108725000Y-88189000D01*
%TO.N,+A9*%
X104280000Y-88824000D02*
X104280000Y-110414000D01*
%TO.N,+A8*%
X89675000Y-109144000D02*
X87770000Y-107239000D01*
X87770000Y-107239000D02*
X87770000Y-88824000D01*
%TO.N,+A7*%
X88641121Y-95851683D02*
X88641121Y-88599830D01*
X89675000Y-104699000D02*
X89675000Y-96885562D01*
X91580000Y-106604000D02*
X89675000Y-104699000D01*
X89675000Y-96885562D02*
X88641121Y-95851683D01*
%TO.N,+A6*%
X89140641Y-89089569D02*
X89340632Y-88889578D01*
X93485000Y-104064000D02*
X91580000Y-102159000D01*
X91580000Y-102159000D02*
X91580000Y-94484674D01*
X89340632Y-88889578D02*
X89340632Y-88027345D01*
X89140641Y-92045315D02*
X89140641Y-89089569D01*
X91580000Y-94484674D02*
X89140641Y-92045315D01*
X89340632Y-88027345D02*
X89269436Y-87956149D01*
%TO.N,+A5*%
X90310000Y-91999000D02*
X89675000Y-91364000D01*
X89675000Y-89391472D02*
X90273550Y-88792922D01*
X94120000Y-100254000D02*
X94120000Y-95174000D01*
X94120000Y-95174000D02*
X90945000Y-91999000D01*
X95390000Y-101524000D02*
X94120000Y-100254000D01*
X90945000Y-91999000D02*
X90310000Y-91999000D01*
X89675000Y-91364000D02*
X89675000Y-89391472D01*
%TO.N,+A4*%
X103010000Y-99619000D02*
X101740000Y-98349000D01*
X101740000Y-98349000D02*
X101740000Y-95174000D01*
X101740000Y-95174000D02*
X98565000Y-91999000D01*
%TO.N,+A3*%
X100470000Y-98349000D02*
X99200000Y-97079000D01*
X99200000Y-97079000D02*
X99200000Y-95174000D01*
X99200000Y-95174000D02*
X97295000Y-93269000D01*
%TO.N,+A2*%
X95390000Y-94539000D02*
X97930000Y-97079000D01*
D24*
%TO.N,/USB_5V*%
X85865000Y-43739000D02*
X90945000Y-43739000D01*
D23*
%TO.N,TX2*%
X103645000Y-65329000D02*
X103645000Y-82474000D01*
X89040000Y-64694000D02*
X92850000Y-64694000D01*
X102375000Y-64059000D02*
X103645000Y-65329000D01*
%TO.N,RX2*%
X102375000Y-65964000D02*
X102375000Y-81839000D01*
X89040000Y-63424000D02*
X92850000Y-63424000D01*
X99835000Y-63424000D02*
X102375000Y-65964000D01*
%TO.N,SWCLK*%
X77610000Y-132004000D02*
X78880000Y-130734000D01*
X80785000Y-90374741D02*
X80785000Y-79934000D01*
X78880000Y-92279741D02*
X80785000Y-90374741D01*
X78880000Y-130734000D02*
X78880000Y-92279741D01*
%TO.N,/BOOT0*%
X69990000Y-88189000D02*
X69355000Y-88824000D01*
X69355000Y-111684000D02*
X70625000Y-112954000D01*
X69355000Y-88824000D02*
X69355000Y-111684000D01*
D24*
%TO.N,/VDD_Decoupling*%
X93485000Y-79934000D02*
X93485000Y-76759000D01*
X83325000Y-79934000D02*
X85230000Y-81839000D01*
X83960000Y-91999000D02*
X83325000Y-91364000D01*
X92850000Y-89459000D02*
X91580000Y-88189000D01*
X83325000Y-90094000D02*
X85230000Y-88189000D01*
X85230000Y-81839000D02*
X91580000Y-81839000D01*
X84455500Y-91999000D02*
X83960000Y-91999000D01*
X85230000Y-88189000D02*
X85230000Y-81839000D01*
X91580000Y-88189000D02*
X91580000Y-81839000D01*
X83325000Y-91364000D02*
X83325000Y-90094000D01*
X91580000Y-81839000D02*
X93485000Y-79934000D01*
X96025000Y-89459000D02*
X92850000Y-89459000D01*
D23*
%TO.N,NRST*%
X86574444Y-131294556D02*
X86574444Y-97153444D01*
X86500000Y-131369000D02*
X86574444Y-131294556D01*
D24*
%TO.N,+3V3*%
X107455000Y-76759000D02*
X107455000Y-85649000D01*
X104915000Y-51994000D02*
X104915000Y-60249000D01*
X105550000Y-114859000D02*
X105550000Y-126289000D01*
X74435000Y-114224000D02*
X74435000Y-112319000D01*
X50305000Y-112954000D02*
X50305000Y-58344000D01*
X50305000Y-112954000D02*
X50305000Y-124384000D01*
X74435000Y-112319000D02*
X73800000Y-111684000D01*
X105550000Y-87554000D02*
X105550000Y-102794000D01*
X68085000Y-101524000D02*
X68085000Y-110414000D01*
X83960000Y-116129000D02*
X83960000Y-128194000D01*
X75070000Y-114859000D02*
X74435000Y-114224000D01*
X104915000Y-74219000D02*
X107455000Y-76759000D01*
X82690000Y-114859000D02*
X83960000Y-116129000D01*
X105550000Y-102794000D02*
X105550000Y-114859000D01*
X54115000Y-53264000D02*
X54115000Y-58344000D01*
X107455000Y-85649000D02*
X105550000Y-87554000D01*
X104915000Y-60249000D02*
X104915000Y-74219000D01*
X104915000Y-51994000D02*
X82055000Y-51994000D01*
X105550000Y-126289000D02*
X105550000Y-128194000D01*
X55385000Y-51994000D02*
X54115000Y-53264000D01*
%TD*%
M02*
